<?xml version="1.0" encoding="UTF-8"?>
<svg version="1.1" id="background" xmlns="http://www.w3.org/2000/svg" xmlns:xlink="http://www.w3.org/1999/xlink" width="834mm" height="734mm" viewBox="0 0 834 734" xml:space="preserve">
  <g>
    <path fill="#FFFFFF" fill-rule="evenodd" stroke="none" d="M45,734C20.147,734 0,713.852 0,689C0,681.100 2.079,673.340 6.028,666.500L378.086,22.077C386.125,8.154 400.980,0.422 417.057,0.422C433.134,0.422 447.990,8.154 456.028,22.077L828.086,666.500C832.036,673.340 834.115,681.100 834.115,689C834.115,713.852 813.968,734 789.115,734Z"/>
    <path fill="black" fill-rule="evenodd" stroke="none" d="M266.353,623.413L266.353,597.004L248.630,597.004L248.630,568.395L266.353,568.395L266.353,469.363L248.630,469.363L248.630,445.155L266.353,445.155L281.861,416.545L301.800,445.155L332.815,445.155L350.538,416.545L368.261,445.155L399.276,445.155L417,416.545L434.723,445.155L467.953,445.155L485.676,416.545L503.399,445.155L536.630,445.155L552.138,416.545L569.861,445.155L585.369,445.155L585.369,469.363L569.861,469.363L569.861,568.395L585.369,568.395L585.369,597.004L569.861,597.004L569.861,623.413L536.630,623.413L536.630,597.004L503.399,597.004L503.399,623.413L467.953,623.413L467.953,597.004L434.723,597.004L434.723,623.413L399.276,623.413L399.276,597.004L368.261,597.004L368.261,623.413L332.815,623.413L332.815,597.004L301.800,597.004L301.800,623.413ZM301.800,469.363L332.815,469.363L332.815,568.395L301.800,568.395ZM368.261,469.363L399.276,469.363L399.276,568.395L368.261,568.395ZM434.723,469.363L467.953,469.363L467.953,568.395L434.723,568.395ZM503.399,469.363L536.630,469.363L536.630,568.395L503.399,568.395Z"/>
    <path fill="#FF0000" fill-rule="evenodd" stroke="none" d="M45,724C25.670,724 10,708.329 10,689C10,682.856 11.617,676.820 14.689,671.500L386.746,27.077C392.998,16.248 404.553,9.577 417.057,9.577C429.562,9.577 441.116,16.248 447.368,27.077L819.426,671.500C822.498,676.820 824.115,682.856 824.115,689C824.115,708.329 808.445,724 789.115,724ZM105.621,664C100.098,664 95.621,659.522 95.621,654C95.621,652.244 96.083,650.520 96.961,649L408.397,109.577C410.183,106.483 413.485,104.577 417.057,104.577C420.630,104.577 423.931,106.483 425.717,109.577L737.153,649C738.031,650.520 738.493,652.244 738.493,654C738.493,659.522 734.016,664 728.493,664Z"/>
  </g>
</svg>
