<?xml version="1.0" encoding="UTF-8"?>
<svg version="1.1" id="background" xmlns="http://www.w3.org/2000/svg" xmlns:xlink="http://www.w3.org/1999/xlink" width="834mm" height="734mm" viewBox="0 0 834 734" xml:space="preserve">
  <g>
    <path fill="#FFFFFF" fill-rule="evenodd" stroke="none" d="M45,734C20.147,734 0,713.852 0,689C0,681.100 2.079,673.340 6.028,666.500L378.086,22.077C386.125,8.154 400.980,0.422 417.057,0.422C433.134,0.422 447.990,8.154 456.028,22.077L828.086,666.500C832.036,673.340 834.115,681.100 834.115,689C834.115,713.852 813.968,734 789.115,734Z"/>
    <path fill="black" fill-rule="evenodd" stroke="none" d="M115.707,646.081L226.698,448.896L305.787,448.896C296.261,444.714 289.615,435.251 289.615,424.248C289.615,409.283 301.800,397.179 316.864,397.179C331.929,397.179 344.113,409.283 344.113,424.248C344.113,435.251 337.467,444.714 327.941,448.896L348.766,448.896L348.766,565.314C363.609,559.812 378.452,554.090 393.295,554.310C408.138,554.310 418.772,565.974 437.824,565.974C456.876,565.974 486.563,554.310 507.387,554.310C528.212,554.090 543.941,564.874 562.993,564.874C582.046,564.874 604.864,554.971 621.258,554.310C637.873,553.650 649.836,558.492 658.033,558.492C662.907,558.492 666.895,557.391 669.332,555.851L677.750,572.356C673.763,574.557 668.667,576.758 661.135,576.758C650.944,576.098 636.766,568.835 619.264,569.275C601.763,569.936 576.507,580.279 557.233,580.279C537.738,580.279 522.895,569.275 502.956,569.275C483.018,569.495 456.655,581.159 437.824,581.159C419.215,581.379 405.479,569.716 390.636,569.716C375.793,569.716 362.279,575.217 348.766,580.939L348.766,596.784C362.058,591.063 375.572,585.341 390.415,585.341C405.036,585.561 419.658,597.445 437.824,597.445C456.212,597.445 480.360,585.561 499.855,585.341C519.350,585.341 535.523,596.784 555.239,596.784C574.735,596.784 599.769,585.781 617.492,585.341C635.436,585.121 651.166,594.584 662.686,594.804C674.206,595.024 680.630,591.283 687.055,587.321L694.587,600.966C685.726,606.248 676.864,611.309 663.572,611.309C650.501,611.309 633.886,600.746 615.498,600.966C597.332,601.186 573.627,612.850 554.132,612.850C534.415,612.630 517.135,600.306 497.861,600.526C478.366,600.746 455.990,613.950 437.824,614.170C419.658,614.390 403.707,602.286 388.864,601.846C374.021,601.626 361.393,606.688 348.766,611.749L348.766,628.035C360.507,622.533 372.027,617.251 386.870,617.471C401.713,617.911 419.436,630.676 437.824,630.015C456.212,629.575 477.479,614.610 496.753,614.390C516.027,614.390 533.529,629.135 553.024,629.355C572.520,629.795 594.895,616.591 613.504,616.591C632.113,616.371 650.501,628.915 664.015,629.355C678.858,629.135 691.264,622.093 702.341,615.050L711.203,628.035C696.138,636.617 681.295,645.420 664.680,646.081C648.064,646.521 630.341,631.336 611.732,631.336C593.123,631.336 572.298,646.081 552.803,646.081C533.307,646.081 514.255,631.336 494.981,631.336C475.929,631.336 455.990,645.861 437.824,646.081C419.658,646.081 401.492,631.776 386.649,631.776C371.806,631.776 360.286,638.818 348.766,646.081ZM316.864,409.503C325.061,409.503 331.707,416.105 331.707,424.248C331.707,432.390 325.061,438.993 316.864,438.993C308.667,438.993 302.021,432.390 302.021,424.248C302.021,416.105 308.667,409.503 316.864,409.503ZM485.898,453.737C470.833,453.737 458.649,465.841 458.649,480.586C458.649,495.551 470.833,507.655 485.898,507.655C500.741,507.655 512.926,495.551 512.926,480.586C512.926,465.841 500.741,453.737 485.898,453.737ZM485.898,465.841C477.701,465.841 471.055,472.444 471.055,480.586C471.055,488.729 477.701,495.331 485.898,495.331C494.095,495.331 500.741,488.729 500.741,480.586C500.741,472.444 494.095,465.841 485.898,465.841ZM285.406,396.298L285.849,361.307C285.849,357.126 286.956,353.825 290.723,352.284L358.956,321.254L447.572,350.964C455.769,353.825 458.427,357.786 459.756,364.388L464.187,388.156C465.738,396.519 477.701,403.341 491.879,411.483L542.390,440.533C551.473,446.475 553.689,458.139 550.366,462.980L529.984,490.930L522.673,489.389C523.116,486.528 523.559,483.667 523.559,480.586C523.559,459.899 506.723,443.174 485.898,443.174C469.283,443.174 455.326,453.737 450.230,468.262L353.418,433.711C354.083,430.630 354.526,427.549 354.526,424.248C354.526,403.561 337.689,386.835 316.864,386.835C305.344,386.835 295.153,391.897 288.064,400.040ZM338.132,370.550C328.384,366.369 329.270,354.705 339.239,346.782C348.766,339.520 361.393,337.539 364.495,338.640L436.052,362.407C446.243,365.268 448.680,388.816 446.464,394.538C444.249,399.600 435.609,405.101 428.520,402.901Z"/>
    <path fill="#FF0000" fill-rule="evenodd" stroke="none" d="M45,724C25.670,724 10,708.329 10,689C10,682.856 11.617,676.820 14.689,671.500L386.746,27.077C392.998,16.248 404.553,9.577 417.057,9.577C429.562,9.577 441.116,16.248 447.368,27.077L819.426,671.500C822.498,676.820 824.115,682.856 824.115,689C824.115,708.329 808.445,724 789.115,724ZM105.621,664C100.098,664 95.621,659.522 95.621,654C95.621,652.244 96.083,650.520 96.961,649L408.397,109.577C410.183,106.483 413.485,104.577 417.057,104.577C420.630,104.577 423.931,106.483 425.717,109.577L737.153,649C738.031,650.520 738.493,652.244 738.493,654C738.493,659.522 734.016,664 728.493,664Z"/>
  </g>
</svg>
