<?xml version="1.0" encoding="UTF-8"?>
<svg version="1.1" id="background" xmlns="http://www.w3.org/2000/svg" xmlns:xlink="http://www.w3.org/1999/xlink" width="834mm" height="734mm" viewBox="0 0 834 734" xml:space="preserve">
  <g>
    <path fill="#FFFFFF" fill-rule="evenodd" stroke="none" d="M45,734C20.147,734 0,713.852 0,689C0,681.100 2.079,673.340 6.028,666.500L378.086,22.077C386.125,8.154 400.980,0.422 417.057,0.422C433.134,0.422 447.990,8.154 456.028,22.077L828.086,666.500C832.036,673.340 834.115,681.100 834.115,689C834.115,713.852 813.968,734 789.115,734Z"/>
    <path fill="black" fill-rule="evenodd" stroke="none" d="M561,467.162C561,430.630 531.313,401.140 494.538,401.140C478.809,401.140 464.409,406.422 453.110,415.445L373.799,479.266C366.710,484.548 361.615,476.405 361.615,467.162L361.615,324.115L295.153,324.115L295.153,489.169C295.153,525.701 324.840,555.191 361.615,555.191C376.680,555.191 390.636,550.129 401.935,541.766L485.676,475.084C490.550,470.683 494.538,474.864 494.538,482.567L494.538,654.003L561,654.003Z"/>
    <path fill="#FF0000" fill-rule="evenodd" stroke="none" d="M45,724C25.670,724 10,708.329 10,689C10,682.856 11.617,676.820 14.689,671.500L386.746,27.077C392.998,16.248 404.553,9.577 417.057,9.577C429.562,9.577 441.116,16.248 447.368,27.077L819.426,671.500C822.498,676.820 824.115,682.856 824.115,689C824.115,708.329 808.445,724 789.115,724ZM105.621,664C100.098,664 95.621,659.522 95.621,654C95.621,652.244 96.083,650.520 96.961,649L408.397,109.577C410.183,106.483 413.485,104.577 417.057,104.577C420.630,104.577 423.931,106.483 425.717,109.577L737.153,649C738.031,650.520 738.493,652.244 738.493,654C738.493,659.522 734.016,664 728.493,664Z"/>
  </g>
</svg>
