<?xml version="1.0" encoding="UTF-8"?>
<svg version="1.1" id="background" xmlns="http://www.w3.org/2000/svg" xmlns:xlink="http://www.w3.org/1999/xlink" width="834mm" height="734mm" viewBox="0 0 834 734" xml:space="preserve">
  <g>
    <path fill="#FFFFFF" fill-rule="evenodd" stroke="none" d="M45,734C20.147,734 0,713.852 0,689C0,681.100 2.079,673.340 6.028,666.500L378.086,22.077C386.125,8.154 400.980,0.422 417.057,0.422C433.134,0.422 447.990,8.154 456.028,22.077L828.086,666.500C832.036,673.340 834.115,681.100 834.115,689C834.115,713.852 813.968,734 789.115,734Z"/>
    <path fill="black" fill-rule="evenodd" stroke="none" d="M715.412,653.783L244.643,443.614L122.575,653.783ZM352.311,404.687C353.679,403.368 355.054,402.226 356.472,401.277C357.864,400.339 359.296,399.505 360.706,398.814C362.143,398.113 363.584,397.545 365.057,397.099C366.531,396.654 368.009,396.342 369.474,396.154C370.947,395.948 372.371,395.850 373.782,395.877C375.174,395.895 376.544,396.012 377.909,396.236C379.265,396.477 380.570,396.783 381.869,397.151C383.168,397.518 384.389,397.960 385.551,398.484C387.131,399.195 388.628,400.088 390.079,401.176C391.539,402.247 392.924,403.480 394.243,404.858C395.563,406.235 396.754,407.751 397.781,409.431C398.827,411.120 399.733,412.877 400.491,414.763C401.277,416.639 401.842,418.612 402.243,420.706C402.644,422.801 402.824,424.948 402.783,427.148C402.752,429.373 402.463,431.636 401.937,433.986C401.419,436.319 400.607,438.672 399.528,441.035C398.334,443.650 396.928,446.105 395.292,448.346C393.673,450.596 391.923,452.656 389.995,454.528C388.086,456.408 386.061,458.062 383.884,459.473C381.725,460.892 379.505,462.110 377.214,463.100C374.915,464.108 372.563,464.897 370.184,465.456C367.787,466.007 365.408,466.327 363.055,466.397C360.702,466.468 358.402,466.280 356.128,465.842C353.864,465.431 351.705,464.741 349.635,463.808C347.275,462.745 345.089,461.346 343.115,459.630C341.148,457.896 339.396,455.932 337.866,453.720C336.345,451.491 335.048,449.058 334.001,446.411C332.937,443.757 332.125,440.934 331.546,437.933C330.968,434.932 330.644,431.807 330.556,428.548C330.467,425.290 330.671,421.967 331.139,418.546C331.624,415.133 332.359,411.702 333.352,408.235C334.352,404.749 335.622,401.298 337.186,397.871C339.056,393.777 341.152,390.002 343.464,386.521C345.768,383.057 348.244,379.889 350.875,377.051C353.488,374.206 356.220,371.674 359.080,369.440C361.939,367.205 364.865,365.305 367.865,363.721C370.857,362.155 373.860,360.899 376.904,359.987C379.947,359.075 382.950,358.492 385.929,358.247C388.901,358.021 391.795,358.107 394.632,358.559C397.450,359.002 400.139,359.779 402.699,360.933C405.259,362.086 407.426,363.237 409.245,364.383C411.054,365.502 412.633,366.649 413.988,367.803C415.362,368.966 416.557,370.135 417.575,371.311C418.610,372.496 419.576,373.736 420.526,375.012L415.713,392.263C414.939,391.371 414.210,390.520 413.546,389.721C412.909,388.912 412.237,388.131 411.576,387.420C410.906,386.683 410.263,385.980 409.621,385.277C408.989,384.601 408.330,383.934 407.618,383.287C406.898,382.658 406.152,382.039 405.343,381.414C404.544,380.815 403.664,380.201 402.731,379.606C401.789,378.986 400.749,378.387 399.583,377.775C398.428,377.189 397.173,376.580 395.830,375.975C393.597,374.968 391.370,374.378 389.169,374.213C386.986,374.055 384.798,374.244 382.649,374.732C380.509,375.247 378.390,376.053 376.325,377.124C374.270,378.220 372.276,379.518 370.335,381.036C368.394,382.553 366.549,384.245 364.818,386.118C363.069,387.983 361.430,389.941 359.902,391.993C358.374,394.044 356.955,396.145 355.681,398.311C354.390,400.469 353.266,402.594 352.311,404.687L352.311,404.687ZM378.691,413.508C377.402,412.927 376.065,412.498 374.735,412.247C373.387,411.987 371.999,411.862 370.588,411.835C369.159,411.800 367.719,411.934 366.283,412.201C364.830,412.459 363.416,412.823 362.006,413.274C360.605,413.752 359.208,414.319 357.833,414.982C356.449,415.663 355.103,416.405 353.842,417.250C352.554,418.105 351.340,419.037 350.148,420.066C348.982,421.085 347.891,422.180 346.882,423.335C346.432,424.655 346.179,425.976 346.070,427.319C345.970,428.687 345.976,430.017 346.081,431.369C346.212,432.711 346.431,434.006 346.765,435.287C347.100,436.569 347.521,437.803 348.021,438.963C348.520,440.123 349.070,441.219 349.708,442.267C350.354,443.298 351.023,444.230 351.751,445.080C352.488,445.912 353.247,446.646 354.038,447.263C354.821,447.899 355.643,448.400 356.496,448.784C357.985,449.455 359.455,449.878 360.899,450.072C362.361,450.274 363.780,450.283 365.191,450.071C366.611,449.884 367.999,449.531 369.335,449.002C370.689,448.482 371.967,447.840 373.222,447.057C374.477,446.274 375.648,445.388 376.753,444.407C377.831,443.436 378.880,442.386 379.854,441.259C380.820,440.151 381.677,438.993 382.443,437.794C383.201,436.613 383.861,435.410 384.404,434.219C385.384,432.073 385.963,429.942 386.142,427.826C386.320,425.710 386.173,423.730 385.657,421.888C385.141,420.046 384.301,418.384 383.130,416.922C381.959,415.459 380.488,414.318 378.691,413.508L378.691,413.508ZM444.730,411.863C447.984,404.739 452.575,399.479 458.504,396.083C464.433,392.687 470.833,392.527 477.696,395.619C484.014,398.467 488.232,403.086 490.339,409.450C492.456,415.841 491.538,423.365 487.576,432.040C483.689,440.553 478.593,446.151 472.297,448.816C466.001,451.481 459.771,451.414 453.634,448.648C447.534,445.899 443.489,441.380 441.481,435.039C439.483,428.723 440.563,420.989 444.730,411.863L444.730,411.863ZM473.510,405.650C470.695,404.382 467.775,404.545 464.783,406.111C461.801,407.703 458.823,411.733 455.850,418.244C453.148,424.160 452.190,428.751 453.001,432.009C453.804,435.285 455.602,437.531 458.380,438.783C461.249,440.075 464.179,439.939 467.179,438.355C470.171,436.789 473.123,432.769 476.071,426.312C478.798,420.342 479.764,415.732 478.961,412.457C478.150,409.199 476.342,406.927 473.510,405.650L473.510,405.650ZM428.278,499.572L531.616,418.873L545.124,424.960L441.932,505.725L428.278,499.572ZM485.565,491.482C488.818,484.358 493.391,479.090 499.294,475.704C505.188,472.336 511.580,472.194 518.497,475.311C524.816,478.158 529.024,482.751 531.139,489.097C533.236,495.436 532.291,502.969 528.305,511.699C524.442,520.158 519.381,525.728 513.103,528.401C506.817,531.092 500.605,531.033 494.468,528.268C488.368,525.519 484.332,520.982 482.316,514.658C480.318,508.343 481.397,500.609 485.565,491.482L485.565,491.482ZM514.289,485.245C511.457,483.969 508.563,484.122 505.599,485.722C502.617,487.314 499.657,491.352 496.684,497.863C493.982,503.779 493.024,508.371 493.799,511.612C494.583,514.880 496.364,517.117 499.160,518.377C502.029,519.670 504.941,519.525 507.941,517.941C510.933,516.375 513.919,512.328 516.884,505.835C519.594,499.901 520.526,495.319 519.723,492.043C518.912,488.785 517.104,486.513 514.289,485.245L514.289,485.245Z"/>
    <path fill="#FF0000" fill-rule="evenodd" stroke="none" d="M45,724C25.670,724 10,708.329 10,689C10,682.856 11.617,676.820 14.689,671.500L386.746,27.077C392.998,16.248 404.553,9.577 417.057,9.577C429.562,9.577 441.116,16.248 447.368,27.077L819.426,671.500C822.498,676.820 824.115,682.856 824.115,689C824.115,708.329 808.445,724 789.115,724ZM105.621,664C100.098,664 95.621,659.522 95.621,654C95.621,652.244 96.083,650.520 96.961,649L408.397,109.577C410.183,106.483 413.485,104.577 417.057,104.577C420.630,104.577 423.931,106.483 425.717,109.577L737.153,649C738.031,650.520 738.493,652.244 738.493,654C738.493,659.522 734.016,664 728.493,664Z"/>
  </g>
</svg>
