<?xml version="1.0" encoding="UTF-8"?>
<svg version="1.1" id="background" xmlns="http://www.w3.org/2000/svg" xmlns:xlink="http://www.w3.org/1999/xlink" width="834mm" height="734mm" viewBox="0 0 834 734" xml:space="preserve">
  <g>
    <path fill="#FFFFFF" fill-rule="evenodd" stroke="none" d="M45,734C20.147,734 0,713.852 0,689C0,681.100 2.079,673.340 6.028,666.500L378.086,22.077C386.125,8.154 400.980,0.422 417.057,0.422C433.134,0.422 447.990,8.154 456.028,22.077L828.086,666.500C832.036,673.340 834.115,681.100 834.115,689C834.115,713.852 813.968,734 789.115,734Z"/>
    <path fill="black" fill-rule="evenodd" stroke="none" d="M118.587,653.783L589.356,443.614L711.424,653.783ZM299.248,486.307C299.151,484.416 299.192,482.636 299.408,480.951C299.614,479.292 299.925,477.673 300.330,476.164C300.746,474.628 301.265,473.177 301.898,471.782C302.531,470.388 303.268,469.077 304.091,467.858C304.905,466.621 305.769,465.493 306.718,464.456C307.650,463.427 308.640,462.481 309.709,461.608C310.785,460.753 311.876,459.979 313.010,459.250C314.145,458.522 315.284,457.900 316.446,457.376C318.025,456.664 319.687,456.133 321.468,455.765C323.240,455.380 325.087,455.157 326.999,455.078C328.911,454.999 330.843,455.107 332.793,455.446C334.762,455.777 336.688,456.257 338.617,456.932C340.555,457.581 342.422,458.458 344.273,459.538C346.123,460.618 347.868,461.898 349.507,463.377C351.172,464.867 352.695,466.573 354.129,468.514C355.555,470.438 356.802,472.594 357.881,474.957C359.075,477.572 360.009,480.240 360.629,482.940C361.267,485.632 361.674,488.297 361.822,490.971C361.989,493.636 361.907,496.239 361.542,498.795C361.196,501.344 360.656,503.805 359.897,506.170C359.146,508.552 358.193,510.830 357.050,512.976C355.888,515.131 354.564,517.120 353.067,518.925C351.571,520.730 349.913,522.325 348.084,523.737C346.281,525.158 344.336,526.317 342.267,527.250C339.906,528.313 337.408,529.026 334.807,529.371C332.198,529.699 329.557,529.715 326.874,529.401C324.183,529.070 321.486,528.437 318.792,527.476C316.080,526.523 313.407,525.271 310.753,523.726C308.099,522.182 305.519,520.365 302.992,518.285C300.466,516.205 298.084,513.864 295.801,511.261C293.535,508.650 291.421,505.841 289.448,502.815C287.467,499.771 285.689,496.549 284.124,493.122C282.255,489.028 280.776,484.975 279.662,480.954C278.557,476.950 277.787,473.013 277.371,469.177C276.937,465.350 276.819,461.640 277.010,458.031C277.201,454.422 277.689,450.984 278.465,447.698C279.250,444.430 280.277,441.358 281.591,438.482C282.905,435.607 284.441,432.979 286.219,430.590C288.004,428.220 289.976,426.114 292.187,424.291C294.379,422.477 296.738,420.979 299.298,419.825C301.858,418.672 304.157,417.809 306.224,417.205C308.263,416.590 310.171,416.165 311.938,415.912C313.724,415.652 315.397,415.528 316.958,415.543C318.537,415.549 320.113,415.643 321.705,415.774L331.601,430.735C330.415,430.726 329.291,430.710 328.249,430.680C327.216,430.623 326.181,430.611 325.208,430.636C324.208,430.652 323.253,430.669 322.297,430.687C321.368,430.714 320.429,430.767 319.471,430.873C318.520,430.997 317.560,431.147 316.553,431.340C315.573,431.542 314.528,431.795 313.464,432.101C312.373,432.397 311.234,432.780 310.003,433.247C308.798,433.725 307.511,434.262 306.167,434.867C303.934,435.873 302.020,437.149 300.445,438.685C298.888,440.213 297.590,441.973 296.544,443.901C295.524,445.839 294.739,447.955 294.189,450.203C293.666,452.461 293.336,454.806 293.207,457.257C293.078,459.707 293.144,462.200 293.423,464.728C293.683,467.264 294.087,469.778 294.634,472.272C295.182,474.765 295.838,477.210 296.640,479.588C297.424,481.975 298.293,484.215 299.248,486.307L299.248,486.307ZM323.306,472.400C322.017,472.981 320.812,473.698 319.745,474.527C318.661,475.363 317.652,476.318 316.702,477.355C315.735,478.400 314.887,479.565 314.144,480.813C313.382,482.070 312.726,483.366 312.139,484.717C311.579,486.079 311.088,487.496 310.684,488.961C310.289,490.445 309.964,491.939 309.773,493.439C309.572,494.965 309.479,496.486 309.473,498.054C309.476,499.596 309.587,501.134 309.797,502.649C310.501,503.854 311.335,504.913 312.280,505.880C313.251,506.855 314.262,507.727 315.355,508.539C316.458,509.325 317.583,510.014 318.774,510.608C319.965,511.202 321.177,511.700 322.384,512.091C323.592,512.482 324.785,512.793 325.999,513.007C327.205,513.203 328.352,513.317 329.475,513.332C330.591,513.330 331.647,513.245 332.635,513.061C333.632,512.895 334.553,512.610 335.406,512.226C336.895,511.555 338.184,510.734 339.282,509.783C340.398,508.823 341.340,507.769 342.108,506.574C342.902,505.390 343.548,504.120 344.028,502.773C344.526,501.418 344.881,500.040 345.115,498.586C345.349,497.132 345.449,495.674 345.434,494.202C345.408,492.756 345.304,491.281 345.092,489.811C344.889,488.358 344.576,486.955 344.173,485.592C343.778,484.248 343.301,482.963 342.757,481.772C341.777,479.626 340.544,477.789 339.059,476.262C337.573,474.735 335.977,473.541 334.242,472.713C332.507,471.886 330.696,471.419 328.816,471.331C326.937,471.242 325.104,471.590 323.306,472.400L323.306,472.400ZM365.560,421.957C362.307,414.832 361.347,407.936 362.680,401.268C364.014,394.599 368.108,389.710 374.971,386.617C381.289,383.770 387.566,383.660 393.774,386.278C400.009,388.905 405.103,394.547 409.065,403.222C412.952,411.735 413.836,419.232 411.707,425.693C409.579,432.154 405.424,436.766 399.287,439.532C393.187,442.281 387.100,442.327 380.974,439.651C374.874,436.984 369.728,431.083 365.560,421.957L365.560,421.957ZM379.811,396.354C376.997,397.622 375.197,399.912 374.412,403.180C373.654,406.457 374.744,411.337 377.717,417.848C380.419,423.764 383.265,427.505 386.267,429.045C389.277,430.603 392.163,430.738 394.941,429.486C397.809,428.193 399.636,425.913 400.412,422.627C401.197,419.360 400.097,414.505 397.148,408.049C394.422,402.079 391.567,398.320 388.557,396.762C385.556,395.222 382.643,395.077 379.811,396.354L379.811,396.354ZM421.157,492.026L428.100,361.632L441.608,355.545L434.810,485.874L421.157,492.026ZM452.763,443.880C449.510,436.756 448.532,429.868 449.855,423.226C451.187,416.601 455.289,411.730 462.207,408.613C468.525,405.766 474.775,405.646 480.976,408.245C487.158,410.853 492.242,416.521 496.228,425.251C500.091,433.710 500.976,441.161 498.866,447.614C496.764,454.086 492.627,458.690 486.490,461.455C480.390,464.204 474.295,464.232 468.177,461.574C462.077,458.908 456.931,453.006 452.763,443.880L452.763,443.880ZM466.960,418.302C464.127,419.578 462.337,421.842 461.597,425.111C460.839,428.389 461.947,433.261 464.920,439.772C467.622,445.688 470.468,449.429 473.434,450.985C476.426,452.551 479.293,452.694 482.089,451.434C484.958,450.141 486.766,447.869 487.543,444.583C488.327,441.316 487.229,436.417 484.264,429.924C481.554,423.991 478.698,420.276 475.688,418.718C472.686,417.178 469.774,417.034 466.960,418.302L466.960,418.302Z"/>
    <path fill="#FF0000" fill-rule="evenodd" stroke="none" d="M45,724C25.670,724 10,708.329 10,689C10,682.856 11.617,676.820 14.689,671.500L386.746,27.077C392.998,16.248 404.553,9.577 417.057,9.577C429.562,9.577 441.116,16.248 447.368,27.077L819.426,671.500C822.498,676.820 824.115,682.856 824.115,689C824.115,708.329 808.445,724 789.115,724ZM105.621,664C100.098,664 95.621,659.522 95.621,654C95.621,652.244 96.083,650.520 96.961,649L408.397,109.577C410.183,106.483 413.485,104.577 417.057,104.577C420.630,104.577 423.931,106.483 425.717,109.577L737.153,649C738.031,650.520 738.493,652.244 738.493,654C738.493,659.522 734.016,664 728.493,664Z"/>
  </g>
</svg>
