<?xml version="1.0" encoding="UTF-8"?>
<svg version="1.1" id="background" xmlns="http://www.w3.org/2000/svg" xmlns:xlink="http://www.w3.org/1999/xlink" width="834mm" height="734mm" viewBox="0 0 834 734" xml:space="preserve">
  <g>
    <path fill="#FFFFFF" fill-rule="evenodd" stroke="none" d="M45,734C20.147,734 0,713.852 0,689C0,681.100 2.079,673.340 6.028,666.500L378.086,22.077C386.125,8.154 400.980,0.422 417.057,0.422C433.134,0.422 447.990,8.154 456.028,22.077L828.086,666.500C832.036,673.340 834.115,681.100 834.115,689C834.115,713.852 813.968,734 789.115,734Z"/>
    <path fill="black" fill-rule="evenodd" stroke="none" d="M296.261,641.679C325.726,624.293 353.640,609.989 345.664,589.082C335.695,567.735 260.372,542.206 254.612,521.960C249.073,501.713 281.196,490.489 317.086,479.706C307.338,494.011 293.824,507.655 306.895,518.879C334.366,540.006 409.689,568.835 421.430,584.460C435.166,604.267 415.670,622.973 396.396,641.679ZM552.581,641.679C564.987,634.857 580.495,618.351 559.227,603.607C540.840,589.962 442.476,563.553 434.723,551.229C418.329,525.481 450.452,513.817 482.796,502.814C473.935,516.018 465.295,529.442 479.695,536.925C509.824,551.890 580.273,573.017 608.630,588.862C632.778,601.846 642.526,622.973 646.513,641.679ZM344.778,457.479C343.670,463.861 335.473,469.363 327.941,468.262C321.295,467.162 314.206,459.459 315.092,453.297L318.415,430.850L347.880,435.031ZM508.716,481.026C507.830,487.408 499.633,492.910 492.101,491.810C485.455,490.930 478.366,483.227 479.252,476.845L482.575,454.398L512.040,458.579ZM320.630,415.225C312.433,414.124 304.680,401.800 306.230,391.017L312.655,347.442C313.984,338.199 324.618,330.937 332.815,332.037L361.172,292.424C366.267,285.382 370.476,280.540 380.889,277.019L497.639,293.965C504.950,299.907 508.273,305.849 510.710,313.991L525.553,359.767C534.415,361.087 541.726,370.990 540.396,380.233L534.193,423.808C532.643,434.371 522.230,444.274 513.369,442.954ZM358.513,335.779L375.572,302.108C378.009,298.146 380.446,295.285 384.655,295.946L487.670,310.690C492.101,311.351 493.209,314.212 494.760,319.273L500.963,356.245Z"/>
    <path fill="#FF0000" fill-rule="evenodd" stroke="none" d="M45,724C25.670,724 10,708.329 10,689C10,682.856 11.617,676.820 14.689,671.500L386.746,27.077C392.998,16.248 404.553,9.577 417.057,9.577C429.562,9.577 441.116,16.248 447.368,27.077L819.426,671.500C822.498,676.820 824.115,682.856 824.115,689C824.115,708.329 808.445,724 789.115,724ZM105.621,664C100.098,664 95.621,659.522 95.621,654C95.621,652.244 96.083,650.520 96.961,649L408.397,109.577C410.183,106.483 413.485,104.577 417.057,104.577C420.630,104.577 423.931,106.483 425.717,109.577L737.153,649C738.031,650.520 738.493,652.244 738.493,654C738.493,659.522 734.016,664 728.493,664Z"/>
  </g>
</svg>
