<?xml version="1.0" encoding="UTF-8"?>
<svg version="1.1" id="background" xmlns="http://www.w3.org/2000/svg" xmlns:xlink="http://www.w3.org/1999/xlink" width="834mm" height="734mm" viewBox="0 0 834 734" xml:space="preserve">
  <g>
    <path fill="#FFFFFF" fill-rule="evenodd" stroke="none" d="M45,734C20.147,734 0,713.852 0,689C0,681.100 2.079,673.340 6.028,666.500L378.086,22.077C386.125,8.154 400.980,0.422 417.057,0.422C433.134,0.422 447.990,8.154 456.028,22.077L828.086,666.500C832.036,673.340 834.115,681.100 834.115,689C834.115,713.852 813.968,734 789.115,734Z"/>
    <path fill="black" fill-rule="evenodd" stroke="none" d="M249.295,359.106L263.695,359.106C278.316,359.106 290.723,367.689 295.818,380.013L318.858,446.475L328.163,446.475C337.910,446.475 348.766,458.359 348.766,466.061L348.766,534.284C348.766,541.986 337.910,555.851 328.163,555.851L143.843,555.851L202.329,446.475L295.818,446.475L278.316,392.997C275.436,384.855 272.335,382.214 263.695,382.214L236.667,382.214ZM298.698,476.845C288.286,476.845 279.867,485.428 279.867,495.771C279.867,506.115 288.286,514.477 298.698,514.477C309.332,514.477 317.750,506.115 317.750,495.771C317.750,485.428 309.332,476.845 298.698,476.845ZM286.070,598.765L286.292,567.075L327.276,567.295L327.055,598.765C327.055,609.989 317.972,619.232 306.673,619.232C295.375,619.232 286.070,609.989 286.070,598.765ZM337.910,613.730L417,517.338L430.292,528.342L346.107,621.433ZM377.123,613.950L540.618,492.910L554.796,510.736L383.547,622.533ZM443.363,614.610L521.787,586.221L527.547,601.626L446.686,623.193ZM443.363,406.642C452.667,406.642 459.978,413.904 459.978,423.147C459.978,432.170 452.667,439.653 443.363,439.653C434.058,439.653 426.747,432.170 426.747,423.147C426.747,413.904 434.058,406.642 443.363,406.642ZM453.553,455.498C467.510,455.498 478.809,466.722 478.809,480.586C478.809,494.451 467.510,505.674 453.553,505.674C439.596,505.674 428.520,494.451 428.520,480.586C428.520,466.722 439.596,455.498 453.553,455.498ZM583.818,445.815C600.212,445.815 613.504,459.019 613.504,475.084C613.504,491.370 600.212,504.574 583.818,504.574C567.646,504.574 554.353,491.370 554.353,475.084C554.353,459.019 567.646,445.815 583.818,445.815ZM608.852,541.106C620.150,541.106 629.455,550.129 629.455,561.353C629.455,572.797 620.150,581.819 608.852,581.819C597.553,581.819 588.470,572.797 588.470,561.353C588.470,550.129 597.553,541.106 608.852,541.106ZM557.012,561.793C570.083,561.793 580.938,572.356 580.938,585.341C580.938,598.545 570.083,609.108 557.012,609.108C543.941,609.108 533.086,598.545 533.086,585.341C533.086,572.356 543.941,561.793 557.012,561.793Z"/>
    <path fill="#FF0000" fill-rule="evenodd" stroke="none" d="M45,724C25.670,724 10,708.329 10,689C10,682.856 11.617,676.820 14.689,671.500L386.746,27.077C392.998,16.248 404.553,9.577 417.057,9.577C429.562,9.577 441.116,16.248 447.368,27.077L819.426,671.500C822.498,676.820 824.115,682.856 824.115,689C824.115,708.329 808.445,724 789.115,724ZM105.621,664C100.098,664 95.621,659.522 95.621,654C95.621,652.244 96.083,650.520 96.961,649L408.397,109.577C410.183,106.483 413.485,104.577 417.057,104.577C420.630,104.577 423.931,106.483 425.717,109.577L737.153,649C738.031,650.520 738.493,652.244 738.493,654C738.493,659.522 734.016,664 728.493,664Z"/>
  </g>
</svg>
