<?xml version="1.0" encoding="UTF-8"?>
<svg version="1.1" id="background" xmlns="http://www.w3.org/2000/svg" xmlns:xlink="http://www.w3.org/1999/xlink" width="834mm" height="734mm" viewBox="0 0 834 734" xml:space="preserve">
  <g>
    <path fill="#FFFFFF" fill-rule="evenodd" stroke="none" d="M45,734C20.147,734 0,713.852 0,689C0,681.100 2.079,673.340 6.028,666.500L378.086,22.077C386.125,8.154 400.980,0.422 417.057,0.422C433.134,0.422 447.990,8.154 456.028,22.077L828.086,666.500C832.036,673.340 834.115,681.100 834.115,689C834.115,713.852 813.968,734 789.115,734Z"/>
    <path fill="black" fill-rule="evenodd" stroke="none" d="M405.701,554.971L405.701,600.085L184.163,600.085L184.163,554.971L374.243,554.971C368.040,551.890 363.387,544.187 364.273,537.145L368.040,511.616L400.827,516.238L397.061,541.766C396.175,546.608 392.630,552.110 387.756,554.971ZM540.396,562.233C539.289,569.495 530.206,575.657 521.787,574.557C514.476,573.457 506.723,564.654 507.609,557.612L511.375,532.083L544.163,536.705ZM370.920,503.034C363.830,502.153 356.963,490.269 358.292,480.146L363.166,445.815C364.273,437.012 374.021,429.970 378.230,430.410L403.264,383.754C408.138,376.932 412.126,372.311 422.538,369.010L536.630,385.515C543.941,391.457 547.264,396.959 549.701,404.661L557.012,456.598C561.664,457.038 568.310,466.282 566.981,475.084L562.329,509.416C560.778,519.759 551.473,529.002 543.719,527.902ZM391.966,432.831L411.904,391.237C414.563,386.395 417.221,382.874 421.652,383.534L528.876,398.939C533.529,399.600 534.858,403.121 536.187,409.063L542.833,453.957ZM422.538,594.364C427.190,594.364 430.956,598.105 430.956,602.726C430.956,607.348 427.190,611.089 422.538,611.089C417.886,611.089 414.120,607.348 414.120,602.726C414.120,598.105 417.886,594.364 422.538,594.364ZM428.520,554.090C431.843,554.090 434.501,556.731 434.501,559.812C434.501,563.113 431.843,565.754 428.520,565.754C425.418,565.754 422.760,563.113 422.760,559.812C422.760,556.731 425.418,554.090 428.520,554.090ZM456.433,577.418C462.636,577.418 467.510,582.480 467.510,588.422C467.510,594.584 462.636,599.645 456.433,599.645C450.452,599.645 445.356,594.584 445.356,588.422C445.356,582.480 450.452,577.418 456.433,577.418ZM462.415,559.372C466.181,559.372 469.283,562.453 469.283,566.194C469.283,569.716 466.181,572.797 462.415,572.797C458.649,572.797 455.547,569.716 455.547,566.194C455.547,562.453 458.649,559.372 462.415,559.372ZM491.879,570.596C497.196,570.596 501.406,574.777 501.406,580.059C501.406,585.341 497.196,589.522 491.879,589.522C486.563,589.522 482.353,585.341 482.353,580.059C482.353,574.777 486.563,570.596 491.879,570.596ZM494.981,596.564C499.633,596.564 503.399,600.306 503.399,604.927C503.399,609.549 499.633,613.290 494.981,613.290C490.329,613.290 486.563,609.549 486.563,604.927C486.563,600.306 490.329,596.564 494.981,596.564ZM536.187,600.085C542.169,600.085 547.264,604.927 547.264,611.089C547.264,617.251 542.169,622.093 536.187,622.093C529.984,622.093 525.110,617.251 525.110,611.089C525.110,604.927 529.984,600.085 536.187,600.085ZM551.030,574.777C554.796,574.777 557.898,577.858 557.898,581.599C557.898,585.121 554.796,588.202 551.030,588.202C547.264,588.202 544.163,585.121 544.163,581.599C544.163,577.858 547.264,574.777 551.030,574.777Z"/>
    <path fill="#FF0000" fill-rule="evenodd" stroke="none" d="M45,724C25.670,724 10,708.329 10,689C10,682.856 11.617,676.820 14.689,671.500L386.746,27.077C392.998,16.248 404.553,9.577 417.057,9.577C429.562,9.577 441.116,16.248 447.368,27.077L819.426,671.500C822.498,676.820 824.115,682.856 824.115,689C824.115,708.329 808.445,724 789.115,724ZM105.621,664C100.098,664 95.621,659.522 95.621,654C95.621,652.244 96.083,650.520 96.961,649L408.397,109.577C410.183,106.483 413.485,104.577 417.057,104.577C420.630,104.577 423.931,106.483 425.717,109.577L737.153,649C738.031,650.520 738.493,652.244 738.493,654C738.493,659.522 734.016,664 728.493,664Z"/>
  </g>
</svg>
