<?xml version="1.0" encoding="UTF-8"?>
<svg version="1.1" id="background" xmlns="http://www.w3.org/2000/svg" xmlns:xlink="http://www.w3.org/1999/xlink" width="834mm" height="734mm" viewBox="0 0 834 734" xml:space="preserve">
  <g>
    <path fill="#FFFFFF" fill-rule="evenodd" stroke="none" d="M45,734C20.147,734 0,713.852 0,689C0,681.100 2.079,673.340 6.028,666.500L378.086,22.077C386.125,8.154 400.980,0.422 417.057,0.422C433.134,0.422 447.990,8.154 456.028,22.077L828.086,666.500C832.036,673.340 834.115,681.100 834.115,689C834.115,713.852 813.968,734 789.115,734Z"/>
    <path fill="black" fill-rule="evenodd" stroke="none" d="M479.030,550.789L563.215,550.789L563.215,440.753L578.723,440.753L578.723,425.348L479.030,425.348ZM494.538,486.968L538.846,486.968L538.846,440.753L494.538,440.753ZM465.738,550.789L465.738,458.359L306.230,458.359L306.230,418.746L270.784,418.746L270.784,458.359L255.276,458.359C246.415,469.363 241.984,480.366 241.984,502.373C241.984,528.782 246.415,539.786 255.276,550.789ZM306.230,407.742C315.092,383.534 335.030,376.932 366.046,376.932C390.415,376.932 405.923,363.728 410.353,339.520C441.369,337.319 461.307,319.713 461.307,295.505C461.307,266.896 452.446,255.892 430.292,244.889C441.369,236.086 448.015,231.684 448.015,214.079C448.015,198.674 436.938,185.469 414.784,185.469C399.276,185.469 383.769,196.473 383.769,214.079C383.769,231.684 392.630,238.287 401.492,244.889C388.200,244.889 366.046,266.896 366.046,295.505C343.892,295.505 328.384,310.910 328.384,337.319C304.015,337.319 270.784,379.133 270.784,407.742ZM445.799,610.209C445.799,632.216 463.523,647.621 483.461,647.621C505.615,647.621 521.123,632.216 521.123,610.209L563.215,610.209L563.215,561.793L248.630,561.793L248.630,579.399L219.830,579.399L219.830,623.413L270.784,623.413C275.215,636.617 288.507,647.621 306.230,647.621C326.169,647.621 343.892,632.216 343.892,610.209L354.969,610.209C354.969,632.216 372.692,647.621 392.630,647.621C414.784,647.621 430.292,632.216 430.292,610.209ZM306.230,579.399C288.507,579.399 275.215,594.804 275.215,610.209C275.215,627.815 288.507,641.019 306.230,641.019C323.953,641.019 337.246,627.815 337.246,610.209C337.246,594.804 323.953,579.399 306.230,579.399ZM392.630,579.399C377.123,579.399 361.615,594.804 361.615,610.209C361.615,627.815 377.123,641.019 392.630,641.019C410.353,641.019 423.646,627.815 423.646,610.209C423.646,594.804 410.353,579.399 392.630,579.399ZM483.461,579.399C465.738,579.399 452.446,594.804 452.446,610.209C452.446,627.815 465.738,641.019 483.461,641.019C501.184,641.019 514.476,627.815 514.476,610.209C514.476,594.804 501.184,579.399 483.461,579.399ZM306.230,599.205C299.584,599.205 295.153,605.807 295.153,610.209C295.153,616.811 299.584,621.212 306.230,621.212C312.876,621.212 317.307,616.811 317.307,610.209C317.307,605.807 312.876,599.205 306.230,599.205ZM392.630,599.205C385.984,599.205 381.553,605.807 381.553,610.209C381.553,616.811 385.984,621.212 392.630,621.212C399.276,621.212 403.707,616.811 403.707,610.209C403.707,605.807 399.276,599.205 392.630,599.205ZM483.461,599.205C476.815,599.205 472.384,605.807 472.384,610.209C472.384,616.811 476.815,621.212 483.461,621.212C490.107,621.212 494.538,616.811 494.538,610.209C494.538,605.807 490.107,599.205 483.461,599.205Z"/>
    <path fill="#FF0000" fill-rule="evenodd" stroke="none" d="M45,724C25.670,724 10,708.329 10,689C10,682.856 11.617,676.820 14.689,671.500L386.746,27.077C392.998,16.248 404.553,9.577 417.057,9.577C429.562,9.577 441.116,16.248 447.368,27.077L819.426,671.500C822.498,676.820 824.115,682.856 824.115,689C824.115,708.329 808.445,724 789.115,724ZM105.621,664C100.098,664 95.621,659.522 95.621,654C95.621,652.244 96.083,650.520 96.961,649L408.397,109.577C410.183,106.483 413.485,104.577 417.057,104.577C420.630,104.577 423.931,106.483 425.717,109.577L737.153,649C738.031,650.520 738.493,652.244 738.493,654C738.493,659.522 734.016,664 728.493,664Z"/>
  </g>
</svg>
