<?xml version="1.0" encoding="UTF-8"?>
<svg version="1.1" id="background" xmlns="http://www.w3.org/2000/svg" xmlns:xlink="http://www.w3.org/1999/xlink" width="834mm" height="734mm" viewBox="0 0 834 734" xml:space="preserve">
  <g>
    <path fill="#FFFFFF" fill-rule="evenodd" stroke="none" d="M45,734C20.147,734 0,713.852 0,689C0,681.100 2.079,673.340 6.028,666.500L378.086,22.077C386.125,8.154 400.980,0.422 417.057,0.422C433.134,0.422 447.990,8.154 456.028,22.077L828.086,666.500C832.036,673.340 834.115,681.100 834.115,689C834.115,713.852 813.968,734 789.115,734Z"/>
    <path fill="black" fill-rule="evenodd" stroke="none" d="M540.618,594.584C546.600,602.726 546.156,610.869 536.630,618.572C526.440,626.054 516.913,624.293 510.267,615.270L420.987,481.907L449.787,455.278ZM348.544,433.271C330.201,451.119 305.566,424.952 323.311,407.676L381.553,350.920L381.553,401.140ZM428.076,194.712C447.572,194.492 452.224,208.797 451.781,221.561C451.559,254.572 414.341,270.857 403.264,271.077C389.972,271.297 384.212,259.634 383.326,236.526C384.212,211.658 406.587,194.712 428.076,194.712ZM336.581,485.648C339.461,475.745 345.221,468.042 352.532,461.000L393.738,423.147L393.738,313.111C393.738,305.629 398.169,297.926 408.803,291.104L433.526,275.523C435.897,274.026 441.036,274.026 443.363,275.523L512.150,319.669C523.493,326.954 528.035,335.074 528.035,346.584L528.035,413.926C528.035,439.477 493.475,438.354 493.696,413.926L493.696,362.275C493.696,353.406 491.370,349.071 482.331,343.239L457.763,327.416L457.763,405.299C457.763,416.567 451.825,428.517 443.894,435.823L383.569,491.238C376.901,497.356 371.739,505.168 368.815,515.468L341.676,610.869C334.388,636.507 298.942,626.450 305.809,600.790Z"/>
    <path fill="black" fill-rule="evenodd" stroke="none" d="M192.360,643.220L242.870,577.198L283.190,577.198L253.947,643.220ZM385.098,643.220L397.061,577.198L438.489,577.198L446.907,643.220ZM581.160,643.220L550.809,577.198L593.123,577.198L643.190,643.220Z"/>
    <path fill="#FF0000" fill-rule="evenodd" stroke="none" d="M45,724C25.670,724 10,708.329 10,689C10,682.856 11.617,676.820 14.689,671.500L386.746,27.077C392.998,16.248 404.553,9.577 417.057,9.577C429.562,9.577 441.116,16.248 447.368,27.077L819.426,671.500C822.498,676.820 824.115,682.856 824.115,689C824.115,708.329 808.445,724 789.115,724ZM105.621,664C100.098,664 95.621,659.522 95.621,654C95.621,652.244 96.083,650.520 96.961,649L408.397,109.577C410.183,106.483 413.485,104.577 417.057,104.577C420.630,104.577 423.931,106.483 425.717,109.577L737.153,649C738.031,650.520 738.493,652.244 738.493,654C738.493,659.522 734.016,664 728.493,664Z"/>
  </g>
</svg>
