<?xml version="1.0" encoding="UTF-8"?>
<svg version="1.1" id="background" xmlns="http://www.w3.org/2000/svg" xmlns:xlink="http://www.w3.org/1999/xlink" width="834mm" height="734mm" viewBox="0 0 834 734" xml:space="preserve">
  <g>
    <path fill="#FFFFFF" fill-rule="evenodd" stroke="none" d="M45,734C20.147,734 0,713.852 0,689C0,681.100 2.079,673.340 6.028,666.500L378.086,22.077C386.125,8.154 400.980,0.422 417.057,0.422C433.134,0.422 447.990,8.154 456.028,22.077L828.086,666.500C832.036,673.340 834.115,681.100 834.115,689C834.115,713.852 813.968,734 789.115,734Z"/>
    <path fill="black" fill-rule="evenodd" stroke="none" d="M283.855,610.869C278.095,620.332 267.239,622.313 260.593,617.691C253.504,612.189 251.067,599.645 257.049,589.742L308.889,507.655L331.707,494.451L308.003,450.876C305.123,446.475 305.344,441.193 308.889,435.471L372.249,335.118C377.344,328.076 386.206,326.316 393.959,331.597C401.713,336.879 401.713,345.022 397.504,351.404L351.646,424.248L383.547,486.308C386.649,492.690 385.763,500.393 380.446,504.134L329.270,538.245ZM227.584,458.359C222.267,450.876 223.596,441.853 230.243,437.012C236.224,432.170 245.307,433.491 250.624,439.873L274.329,469.142L298.476,453.737L313.319,480.146L265.467,510.956ZM304.680,347.883C315.756,348.323 324.618,356.465 324.618,369.890C323.953,395.858 304.901,420.066 293.603,420.066C275.658,419.406 264.359,403.561 264.359,383.974C264.138,365.048 288.286,347.883 304.680,347.883ZM383.104,587.761L357.849,534.944L384.212,518.219L403.929,554.310L424.753,554.751L424.310,587.982ZM469.726,602.066C469.726,611.309 461.529,619.672 452.446,619.892C442.698,619.672 432.950,611.089 432.950,602.066L432.950,496.431C432.950,491.810 437.381,486.088 444.470,481.907L501.627,446.255L460.643,375.172C457.319,369.450 457.763,362.848 462.636,357.566L482.132,336.439L542.390,336.439L561.886,368.349L517.578,368.349L557.233,435.691C562.107,443.394 560.778,451.537 554.132,455.718L469.726,509.416ZM377.566,438.772C367.596,433.051 363.166,422.047 367.596,412.584C372.027,404.221 384.212,402.681 392.187,406.642L427.412,427.109L453.996,383.754L472.163,413.904L438.932,469.583ZM590.243,547.928C581.603,553.870 571.412,555.191 566.316,547.708L527.326,487.629L556.790,469.142L583.375,512.057L629.012,484.107L647.178,513.157ZM452.667,272.178C469.504,272.178 480.360,279.440 481.246,296.386C481.689,319.273 458.427,349.643 441.812,350.083C428.076,349.643 415.449,333.798 414.784,312.231C414.784,292.644 436.052,272.398 452.667,272.178Z"/>
    <path fill="#FF0000" fill-rule="evenodd" stroke="none" d="M45,724C25.670,724 10,708.329 10,689C10,682.856 11.617,676.820 14.689,671.500L386.746,27.077C392.998,16.248 404.553,9.577 417.057,9.577C429.562,9.577 441.116,16.248 447.368,27.077L819.426,671.500C822.498,676.820 824.115,682.856 824.115,689C824.115,708.329 808.445,724 789.115,724ZM105.621,664C100.098,664 95.621,659.522 95.621,654C95.621,652.244 96.083,650.520 96.961,649L408.397,109.577C410.183,106.483 413.485,104.577 417.057,104.577C420.630,104.577 423.931,106.483 425.717,109.577L737.153,649C738.031,650.520 738.493,652.244 738.493,654C738.493,659.522 734.016,664 728.493,664Z"/>
  </g>
</svg>
