<?xml version="1.0" encoding="UTF-8"?>
<svg version="1.1" id="background" xmlns="http://www.w3.org/2000/svg" xmlns:xlink="http://www.w3.org/1999/xlink" width="834mm" height="734mm" viewBox="0 0 834 734" xml:space="preserve">
  <g>
    <path fill="#FFFFFF" fill-rule="evenodd" stroke="none" d="M45,734C20.147,734 0,713.852 0,689C0,681.100 2.079,673.340 6.028,666.500L378.086,22.077C386.125,8.154 400.980,0.422 417.057,0.422C433.134,0.422 447.990,8.154 456.028,22.077L828.086,666.500C832.036,673.340 834.115,681.100 834.115,689C834.115,713.852 813.968,734 789.115,734Z"/>
    <path fill="black" fill-rule="evenodd" stroke="none" d="M312.876,501.273C327.276,514.697 336.359,533.844 336.359,555.191C336.359,596.124 303.129,629.135 261.923,629.135C220.716,629.135 187.486,596.124 187.486,555.191C187.486,514.257 220.716,481.246 261.923,481.246C275.658,481.246 288.507,484.988 299.363,491.370L275.215,533.183C270.784,540.006 266.796,542.647 261.923,544.407C252.840,547.928 249.295,552.990 251.953,558.932C254.390,563.774 260.815,564.434 267.018,562.013C275.880,557.391 281.861,551.670 287.178,545.287ZM319.080,487.849C338.353,504.134 350.538,528.122 350.538,555.191C350.538,603.827 310.883,643.220 261.923,643.220C212.963,643.220 173.307,603.827 173.307,555.191C173.307,506.555 212.963,467.162 261.923,467.162C278.095,467.162 293.381,471.563 306.452,479.046L331.043,426.889C335.695,418.746 335.030,412.584 328.827,409.063L319.301,403.341C307.338,395.418 307.338,381.994 316.421,368.129C322.846,360.207 329.713,359.106 339.683,359.106L372.692,359.106C379.338,359.106 382.440,361.307 382.440,365.268C382.440,369.010 378.673,371.650 372.692,371.650L336.138,371.650C329.492,371.650 325.726,375.832 325.726,382.874C325.726,387.936 328.163,393.217 333.923,396.298C343.670,401.140 346.329,408.843 346.329,416.545C346.107,423.147 342.784,424.908 339.683,426.889L494.981,426.889L501.849,412.584L471.941,412.584C466.181,412.584 462.415,407.302 462.415,401.140C462.415,395.198 467.289,390.357 473.492,390.357L527.769,390.357C536.630,390.357 541.283,394.538 541.061,401.140C541.061,408.182 535.966,412.584 527.769,412.584L520.458,412.584L507.609,433.271L534.415,475.525C545.935,470.023 558.563,467.162 572.076,467.162C621.036,467.162 660.692,506.555 660.692,555.191C660.692,603.827 621.036,643.220 572.076,643.220C526.218,643.220 488.335,608.448 483.904,563.994L439.153,564.434L327.498,473.104ZM541.726,487.629C551.030,483.447 561.221,481.246 572.076,481.246C613.283,481.246 646.513,514.257 646.513,555.191C646.513,596.124 613.283,629.135 572.076,629.135C534.193,629.135 502.735,600.966 498.304,564.434L572.076,564.434C580.938,564.434 588.692,557.612 582.710,549.469ZM498.304,544.847C501.184,525.261 511.375,508.315 526.218,496.872L554.796,544.407ZM335.916,457.038L344.113,442.514L488.778,442.514L438.046,542.427ZM517.799,485.428C499.633,499.512 487.006,520.419 484.126,544.407L456.655,544.407L500.520,457.038Z"/>
    <path fill="#FF0000" fill-rule="evenodd" stroke="none" d="M45,724C25.670,724 10,708.329 10,689C10,682.856 11.617,676.820 14.689,671.500L386.746,27.077C392.998,16.248 404.553,9.577 417.057,9.577C429.562,9.577 441.116,16.248 447.368,27.077L819.426,671.500C822.498,676.820 824.115,682.856 824.115,689C824.115,708.329 808.445,724 789.115,724ZM105.621,664C100.098,664 95.621,659.522 95.621,654C95.621,652.244 96.083,650.520 96.961,649L408.397,109.577C410.183,106.483 413.485,104.577 417.057,104.577C420.630,104.577 423.931,106.483 425.717,109.577L737.153,649C738.031,650.520 738.493,652.244 738.493,654C738.493,659.522 734.016,664 728.493,664Z"/>
  </g>
</svg>
