<?xml version="1.0" encoding="UTF-8"?>
<svg version="1.1" id="background" xmlns="http://www.w3.org/2000/svg" xmlns:xlink="http://www.w3.org/1999/xlink" width="834mm" height="734mm" viewBox="0 0 834 734" xml:space="preserve">
  <g>
    <path fill="#FFFFFF" fill-rule="evenodd" stroke="none" d="M45,734C20.147,734 0,713.852 0,689C0,681.100 2.079,673.340 6.028,666.500L378.086,22.077C386.125,8.154 400.980,0.422 417.057,0.422C433.134,0.422 447.990,8.154 456.028,22.077L828.086,666.500C832.036,673.340 834.115,681.100 834.115,689C834.115,713.852 813.968,734 789.115,734Z"/>
    <path fill="#FFC000" fill-rule="evenodd" stroke="none" d="M105.621,664C100.098,664 95.621,659.522 95.621,654C95.621,652.244 96.083,650.520 96.961,649L408.397,109.577C410.183,106.483 413.485,104.577 417.057,104.577C420.630,104.577 423.931,106.483 425.717,109.577L737.153,649C738.031,650.520 738.493,652.244 738.493,654C738.493,659.522 734.016,664 728.493,664Z"/>
    <path fill="black" fill-rule="evenodd" stroke="none" d="M322.403,631.336C306.319,655.324 271.870,633.272 288.507,608.228L339.904,531.423L335.252,481.466L379.205,509.108L381.664,535.560C381.974,538.839 380.446,544.869 378.585,547.620ZM403.043,452.791L425.196,418.306L441.635,476.361ZM340.569,365.951C343.759,361.329 352.067,356.685 357.605,356.685L390.415,356.685L349.674,420.088L318.171,400.810ZM311.082,411.836C292.982,440.027 261.502,420.683 279.646,392.469L320.298,329.198C323.267,324.577 331.796,319.933 337.334,319.933L403.020,319.933C408.559,319.933 417.354,324.379 420.588,328.846L449.566,368.569L488.091,504.816L588.027,565.974C605.972,547.268 611.953,522.400 632.335,506.335L712.753,641.679L471.055,641.679C531.092,569.716 549.701,592.383 575.621,574.777L493.608,524.249C498.238,540.688 482.819,550.283 471.055,547.048L471.055,621.653C470.922,632.546 462.858,641.679 450.341,641.679C437.137,641.679 429.893,632.546 429.849,621.653L429.849,526.801L334.366,466.942C327.232,462.474 327.343,454.860 332.571,446.717L342.540,431.202ZM458.649,260.514C472.827,259.854 500.741,279.220 500.298,299.027C500.076,319.713 473.492,341.721 459.756,341.941C440.704,340.620 432.064,315.092 434.944,290.664C437.603,268.216 443.141,261.394 458.649,260.514Z"/>
    <path fill="#FF0000" fill-rule="evenodd" stroke="none" d="M45,724C25.670,724 10,708.329 10,689C10,682.856 11.617,676.820 14.689,671.500L386.746,27.077C392.998,16.248 404.553,9.577 417.057,9.577C429.562,9.577 441.116,16.248 447.368,27.077L819.426,671.500C822.498,676.820 824.115,682.856 824.115,689C824.115,708.329 808.445,724 789.115,724ZM105.621,664C100.098,664 95.621,659.522 95.621,654C95.621,652.244 96.083,650.520 96.961,649L408.397,109.577C410.183,106.483 413.485,104.577 417.057,104.577C420.630,104.577 423.931,106.483 425.717,109.577L737.153,649C738.031,650.520 738.493,652.244 738.493,654C738.493,659.522 734.016,664 728.493,664Z"/>
  </g>
</svg>
