<?xml version="1.0" encoding="UTF-8"?>
<svg version="1.1" id="background" xmlns="http://www.w3.org/2000/svg" xmlns:xlink="http://www.w3.org/1999/xlink" width="834mm" height="734mm" viewBox="0 0 834 734" xml:space="preserve">
  <g>
    <path fill="#FFFFFF" fill-rule="evenodd" stroke="none" d="M45,734C20.147,734 0,713.852 0,689C0,681.100 2.079,673.340 6.028,666.500L378.086,22.077C386.125,8.154 400.980,0.422 417.057,0.422C433.134,0.422 447.990,8.154 456.028,22.077L828.086,666.500C832.036,673.340 834.115,681.100 834.115,689C834.115,713.852 813.968,734 789.115,734Z"/>
    <path fill="black" fill-rule="evenodd" stroke="none" d="M295.153,397.619L284.963,397.619C278.760,397.619 273.221,393.658 273.221,389.916C273.221,385.735 278.760,381.334 284.963,381.334C290.279,381.334 295.153,375.612 295.153,370.330C297.812,359.546 299.806,353.604 304.458,349.423C308.889,353.604 310.883,359.546 313.319,370.330C313.319,375.612 318.193,381.334 322.846,381.334L353.196,381.334C357.627,381.334 362.279,375.612 362.279,370.330C365.381,359.546 367.596,353.604 371.806,349.423C375.793,353.604 378.452,359.546 380.889,370.330C380.889,375.612 385.984,381.334 390.636,381.334C396.396,381.334 401.492,385.735 401.492,389.916C401.492,393.658 396.396,397.619 390.636,397.619L380.889,397.619L369.369,459.239C368.261,464.301 362.279,471.343 356.963,471.343L318.636,471.343C313.319,471.343 307.560,464.301 306.452,458.799ZM321.516,483.007L362.501,483.007C368.704,483.007 374.021,479.046 376.458,471.563L392.852,412.364L556.790,412.364C570.526,412.364 577.172,418.966 576.950,431.950L577.172,489.609C577.172,498.852 578.058,502.814 584.926,512.057L605.750,536.925L611.067,623.853C611.510,630.896 608.187,636.838 603.756,637.498C599.104,637.938 593.787,633.757 592.236,627.374L583.153,581.599C582.046,573.897 577.836,567.735 570.083,565.754L543.941,558.492C530.870,555.411 524.446,549.029 524.224,534.504L517.356,527.021L441.590,554.531C437.824,556.071 435.609,560.252 435.830,565.534L434.723,626.054C435.166,632.436 428.520,637.498 424.089,637.718C418.550,637.498 412.347,629.135 412.126,622.973L413.676,577.858C414.120,569.055 407.695,561.353 398.169,561.573L371.363,561.573C353.640,561.353 344.778,557.391 342.563,551.229ZM366.932,622.313C362.279,632.656 357.184,637.278 351.646,637.498C345.664,636.617 344.335,627.374 347.436,620.332L366.710,574.117L386.206,574.117ZM512.261,626.494C507.830,633.096 501.406,635.517 497.861,633.536C494.316,630.676 494.538,624.073 497.639,617.691L523.781,559.812L539.732,571.036Z"/>
    <path fill="#FF0000" fill-rule="evenodd" stroke="none" d="M45,724C25.670,724 10,708.329 10,689C10,682.856 11.617,676.820 14.689,671.500L386.746,27.077C392.998,16.248 404.553,9.577 417.057,9.577C429.562,9.577 441.116,16.248 447.368,27.077L819.426,671.500C822.498,676.820 824.115,682.856 824.115,689C824.115,708.329 808.445,724 789.115,724ZM105.621,664C100.098,664 95.621,659.522 95.621,654C95.621,652.244 96.083,650.520 96.961,649L408.397,109.577C410.183,106.483 413.485,104.577 417.057,104.577C420.630,104.577 423.931,106.483 425.717,109.577L737.153,649C738.031,650.520 738.493,652.244 738.493,654C738.493,659.522 734.016,664 728.493,664Z"/>
  </g>
</svg>
