<?xml version="1.0" encoding="UTF-8"?>
<svg version="1.1" id="background" xmlns="http://www.w3.org/2000/svg" xmlns:xlink="http://www.w3.org/1999/xlink" width="834mm" height="734mm" viewBox="0 0 834 734" xml:space="preserve">
  <g>
    <path fill="#FFFFFF" fill-rule="evenodd" stroke="none" d="M45,734C20.147,734 0,713.852 0,689C0,681.100 2.079,673.340 6.028,666.500L378.086,22.077C386.125,8.154 400.980,0.422 417.057,0.422C433.134,0.422 447.990,8.154 456.028,22.077L828.086,666.500C832.036,673.340 834.115,681.100 834.115,689C834.115,713.852 813.968,734 789.115,734Z"/>
    <path fill="black" fill-rule="evenodd" stroke="none" d="M387.756,573.237C390.193,581.159 388.864,585.561 384.212,588.642C378.673,590.842 372.470,588.642 370.255,581.159L348.987,508.976L368.261,464.741L387.756,472.664L369.812,513.157ZM307.338,497.312C306.009,504.574 300.692,510.076 295.596,509.416C289.615,507.875 286.735,500.833 288.064,492.470L302.243,404.441C303.572,395.858 312.433,392.117 322.624,397.619L355.190,417.866C362.058,422.267 367.375,420.506 368.040,413.904L378.009,336.879L329.049,299.467C320.852,293.085 325.947,281.421 334.587,283.401L388.200,292.644C395.067,293.525 397.726,289.343 390.858,281.201L365.381,256.332L371.806,228.823C372.470,224.862 376.015,224.862 380.667,226.623C384.655,228.163 385.984,233.005 385.098,236.086L383.547,255.012L398.390,268.877L399.498,247.310C399.719,242.248 404.593,237.846 408.803,238.066C413.012,238.287 417.886,242.248 417.886,248.410L417.443,261.834L444.692,236.086L449.566,215.399C450.452,212.098 453.775,211.218 456.655,211.658C459.313,212.098 463.301,215.399 462.858,220.461L461.307,240.487L413.676,284.062L410.796,291.984L429.627,292.204C436.273,292.424 439.818,295.725 439.596,299.907C439.596,304.528 436.273,306.289 432.064,306.509L422.981,306.289L422.760,318.393L430.513,346.562L434.723,378.253L561,459.239C566.981,462.980 568.089,470.903 564.766,476.405L538.846,527.462C536.409,531.863 536.187,537.145 540.618,540.886L561.443,558.272L588.913,637.058C590.464,643.000 586.920,649.602 583.153,651.802C579.166,653.563 573.627,650.482 571.633,645.861L547.929,577.418L526.218,557.832L513.812,554.751C510.710,554.090 506.501,551.009 505.172,546.388L492.766,509.856L397.283,450.216L389.086,453.297C383.990,455.718 379.559,454.838 375.350,452.637L326.169,424.908C321.738,422.707 318.636,425.788 318.193,429.750ZM531.313,617.691C531.313,624.954 526.440,631.776 520.680,631.556C514.920,631.116 510.046,624.073 510.046,617.471L511.153,563.333L531.535,578.078Z"/>
    <path fill="#FF0000" fill-rule="evenodd" stroke="none" d="M45,724C25.670,724 10,708.329 10,689C10,682.856 11.617,676.820 14.689,671.500L386.746,27.077C392.998,16.248 404.553,9.577 417.057,9.577C429.562,9.577 441.116,16.248 447.368,27.077L819.426,671.500C822.498,676.820 824.115,682.856 824.115,689C824.115,708.329 808.445,724 789.115,724ZM105.621,664C100.098,664 95.621,659.522 95.621,654C95.621,652.244 96.083,650.520 96.961,649L408.397,109.577C410.183,106.483 413.485,104.577 417.057,104.577C420.630,104.577 423.931,106.483 425.717,109.577L737.153,649C738.031,650.520 738.493,652.244 738.493,654C738.493,659.522 734.016,664 728.493,664Z"/>
  </g>
</svg>
