<?xml version="1.0" encoding="UTF-8"?>
<svg version="1.1" id="background" xmlns="http://www.w3.org/2000/svg" xmlns:xlink="http://www.w3.org/1999/xlink" width="834mm" height="734mm" viewBox="0 0 834 734" xml:space="preserve">
  <g>
    <path fill="#FFFFFF" fill-rule="evenodd" stroke="none" d="M45,734C20.147,734 0,713.852 0,689C0,681.100 2.079,673.340 6.028,666.500L378.086,22.077C386.125,8.154 400.980,0.422 417.057,0.422C433.134,0.422 447.990,8.154 456.028,22.077L828.086,666.500C832.036,673.340 834.115,681.100 834.115,689C834.115,713.852 813.968,734 789.115,734Z"/>
    <path fill="black" fill-rule="evenodd" stroke="none" d="M290.944,643.660C300.913,626.054 310.883,608.448 325.726,593.263C340.569,578.078 364.273,569.936 380.003,552.330C395.510,534.724 406.144,507.655 419.658,488.069C432.950,468.262 450.452,456.378 460.200,434.151C469.726,411.704 468.618,376.492 477.036,354.265C485.455,332.037 498.304,315.972 511.153,300.127L712.089,643.660ZM458.206,307.609C465.738,307.609 471.719,313.551 471.719,320.814C471.719,328.296 465.738,334.238 458.206,334.238C450.673,334.238 444.692,328.296 444.692,320.814C444.692,313.551 450.673,307.609 458.206,307.609ZM431.843,371.650C442.476,371.650 451.338,380.453 451.338,391.017C451.338,401.800 442.476,410.383 431.843,410.383C420.987,410.383 412.347,401.800 412.347,391.017C412.347,380.453 420.987,371.650 431.843,371.650ZM383.990,407.082C395.732,407.082 405.258,416.545 405.258,427.989C405.258,439.653 395.732,449.116 383.990,449.116C372.249,449.116 362.723,439.653 362.723,427.989C362.723,416.545 372.249,407.082 383.990,407.082ZM315.978,447.355C325.283,447.355 332.815,454.838 332.815,463.861C332.815,473.104 325.283,480.586 315.978,480.586C306.895,480.586 299.363,473.104 299.363,463.861C299.363,454.838 306.895,447.355 315.978,447.355ZM352.532,493.130C368.483,493.130 381.553,505.895 381.553,521.740C381.553,537.585 368.483,550.569 352.532,550.569C336.581,550.569 323.732,537.585 323.732,521.740C323.732,505.895 336.581,493.130 352.532,493.130ZM257.049,540.886C281.196,540.886 300.692,560.252 300.692,584.240C300.692,608.228 281.196,627.595 257.049,627.595C232.901,627.595 213.406,608.228 213.406,584.240C213.406,560.252 232.901,540.886 257.049,540.886Z"/>
    <path fill="#FF0000" fill-rule="evenodd" stroke="none" d="M45,724C25.670,724 10,708.329 10,689C10,682.856 11.617,676.820 14.689,671.500L386.746,27.077C392.998,16.248 404.553,9.577 417.057,9.577C429.562,9.577 441.116,16.248 447.368,27.077L819.426,671.500C822.498,676.820 824.115,682.856 824.115,689C824.115,708.329 808.445,724 789.115,724ZM105.621,664C100.098,664 95.621,659.522 95.621,654C95.621,652.244 96.083,650.520 96.961,649L408.397,109.577C410.183,106.483 413.485,104.577 417.057,104.577C420.630,104.577 423.931,106.483 425.717,109.577L737.153,649C738.031,650.520 738.493,652.244 738.493,654C738.493,659.522 734.016,664 728.493,664Z"/>
  </g>
</svg>
