<?xml version="1.0" encoding="UTF-8"?>
<svg version="1.1" id="background" xmlns="http://www.w3.org/2000/svg" xmlns:xlink="http://www.w3.org/1999/xlink" width="834mm" height="734mm" viewBox="0 0 834 734" xml:space="preserve">
  <g>
    <path fill="#FFFFFF" fill-rule="evenodd" stroke="none" d="M45,734C20.147,734 0,713.852 0,689C0,681.100 2.079,673.340 6.028,666.500L378.086,22.077C386.125,8.154 400.980,0.422 417.057,0.422C433.134,0.422 447.990,8.154 456.028,22.077L828.086,666.500C832.036,673.340 834.115,681.100 834.115,689C834.115,713.852 813.968,734 789.115,734Z"/>
    <path fill="black" fill-rule="evenodd" stroke="none" d="M314.206,516.458C281.861,510.076 257.270,481.466 257.270,446.915C257.270,412.584 281.640,383.754 314.206,377.372L314.206,357.126C314.206,349.203 320.409,343.041 328.384,343.041C336.359,343.041 342.563,349.203 342.563,357.126L342.563,377.372L592.458,463.200C603.313,467.162 610.846,477.285 610.846,489.169C610.846,504.354 598.440,516.678 583.153,516.678L342.563,516.678L342.563,640.579L314.206,640.579ZM583.153,467.162C570.969,467.162 561,477.065 561,489.169C561,501.273 570.969,511.176 583.153,511.176C595.338,511.176 605.307,501.273 605.307,489.169C605.307,477.065 595.338,467.162 583.153,467.162ZM354.969,390.577C347.880,387.716 340.126,386.175 332.150,386.175C298.033,386.175 270.563,413.904 270.563,448.016C270.563,477.285 290.501,501.713 317.529,508.315C305.566,495.551 298.255,478.385 298.255,459.679C298.255,425.128 322.624,396.519 354.747,390.357ZM418.550,412.144L415.892,412.144C386.427,412.144 362.723,435.471 362.723,464.301C362.723,484.768 374.686,502.593 391.966,511.176L424.089,511.176C409.246,503.254 399.276,487.408 399.276,469.583C399.276,443.394 420.323,422.267 446.243,422.267C447.572,422.267 448.901,422.487 450.230,422.487ZM487.449,435.251C469.283,439.653 455.769,455.938 455.769,475.304C455.769,490.710 464.187,504.134 476.593,511.176L516.692,510.956C506.723,504.574 500.076,493.570 500.076,480.806C500.076,464.961 510.710,451.317 525.332,446.695Z"/>
    <path fill="#FF0000" fill-rule="evenodd" stroke="none" d="M45,724C25.670,724 10,708.329 10,689C10,682.856 11.617,676.820 14.689,671.500L386.746,27.077C392.998,16.248 404.553,9.577 417.057,9.577C429.562,9.577 441.116,16.248 447.368,27.077L819.426,671.500C822.498,676.820 824.115,682.856 824.115,689C824.115,708.329 808.445,724 789.115,724ZM105.621,664C100.098,664 95.621,659.522 95.621,654C95.621,652.244 96.083,650.520 96.961,649L408.397,109.577C410.183,106.483 413.485,104.577 417.057,104.577C420.630,104.577 423.931,106.483 425.717,109.577L737.153,649C738.031,650.520 738.493,652.244 738.493,654C738.493,659.522 734.016,664 728.493,664Z"/>
  </g>
</svg>
