<?xml version="1.0" encoding="UTF-8"?>
<svg version="1.1" id="background" xmlns="http://www.w3.org/2000/svg" xmlns:xlink="http://www.w3.org/1999/xlink" width="1082mm" height="698mm" viewBox="0 0 1082 698" xml:space="preserve">
  <g>
    <path fill="#FFFFFF" fill-rule="evenodd" stroke="none" d="M541,464.436L136.535,698L0,661.408L36.584,524.845L341.098,349L36.584,173.154L0,36.591L136.535,0L541,233.563L945.464,0L1082,36.591L1045.415,173.154L740.901,349L1045.415,524.845L1082,661.408L945.464,698Z"/>
    <path fill="#FF0000" fill-rule="evenodd" stroke="none" d="M541,452.888L135.122,687.268L12.246,654.337L45.172,531.434L361.095,349L45.172,166.565L12.246,43.662L135.122,10.731L541,245.111L946.877,10.731L1069.753,43.662L1036.827,166.565L720.904,349L1036.827,531.434L1069.753,654.337L946.877,687.268ZM541,395.150L128.057,633.610L73.481,618.983L88.110,564.377L461.080,349L88.110,133.622L73.481,79.016L128.057,64.389L541,302.849L953.942,64.389L1008.518,79.016L993.889,133.622L620.919,349L993.889,564.377L1008.518,618.983L953.942,633.610Z"/>
  </g>
</svg>
