<?xml version="1.0" encoding="UTF-8"?>
<svg version="1.1" id="background" xmlns="http://www.w3.org/2000/svg" xmlns:xlink="http://www.w3.org/1999/xlink" width="1082mm" height="1162mm" viewBox="0 0 1082 1162" xml:space="preserve">
  <g>
    <path fill="#FFFFFF" fill-rule="evenodd" stroke="none" d="M541,463.951L136.535,697.427L0,660.849L36.584,524.338L341.098,348.558L36.584,172.778L0,36.267L136.535,0.310L541,233.165L945.464,0.310L1082,36.267L1045.415,172.778L740.901,348.558L1045.415,524.338L1082,660.849L945.464,697.427ZM541,928.523L136.535,1162L0,1125.421L36.584,988.910L541,697.738L1045.415,988.910L1082,1125.421L945.464,1162Z"/>
    <path fill="#FF0000" fill-rule="evenodd" stroke="none" d="M541,452.404L135.122,686.696L12.247,653.777L45.171,530.927L361.100,348.558L45.171,166.188L12.247,43.338L135.122,10.420L541,244.712L946.877,10.420L1069.752,43.338L1036.828,166.188L720.899,348.558L1036.828,530.927L1069.752,653.777L946.877,686.696ZM541,916.977L135.122,1151.268L12.247,1118.350L45.171,995.500L541,709.284L1036.828,995.500L1069.752,1118.350L946.877,1151.268ZM541,394.672L128.059,633.040L73.487,618.421L88.105,563.876L461.114,348.558L88.105,133.240L73.487,78.695L128.059,64.075L541,302.444L953.940,64.075L1008.512,78.695L993.894,133.240L620.885,348.558L993.894,563.876L1008.512,618.421L953.940,633.040ZM541,859.244L128.059,1097.613L73.487,1082.993L88.105,1028.449L541,767.017L993.894,1028.449L1008.512,1082.993L953.940,1097.613Z"/>
  </g>
</svg>
