<?xml version="1.0" encoding="UTF-8"?>
<svg version="1.1" id="background" xmlns="http://www.w3.org/2000/svg" xmlns:xlink="http://www.w3.org/1999/xlink" width="834mm" height="734mm" viewBox="0 0 834 734" xml:space="preserve">
  <g>
    <path fill="#FFFFFF" fill-rule="evenodd" stroke="none" d="M45,734C20.147,734 0,713.852 0,689C0,681.100 2.079,673.340 6.028,666.500L378.086,22.077C386.125,8.154 400.980,0.422 417.057,0.422C433.134,0.422 447.990,8.154 456.028,22.077L828.086,666.500C832.036,673.340 834.115,681.100 834.115,689C834.115,713.852 813.968,734 789.115,734Z"/>
    <path fill="black" fill-rule="evenodd" stroke="none" d="M306.673,513.817C306.673,521.300 300.027,527.462 292.052,527.462C284.076,527.462 277.652,521.300 277.652,513.817L277.652,493.350L306.673,493.350ZM383.547,572.136C383.547,580.279 376.458,586.881 367.818,586.881C358.956,586.881 351.867,580.279 351.867,572.136L351.867,549.689L383.547,549.689ZM460.200,631.336C460.200,641.019 452.224,648.942 442.476,648.942C432.950,648.942 424.975,641.019 424.975,631.336L424.975,605.147L460.200,605.147ZM603.535,631.336C603.535,641.019 595.559,648.942 585.812,648.942C576.286,648.942 568.310,641.019 568.310,631.336L568.310,605.147L603.535,605.147ZM424.975,598.985C418.772,598.985 412.569,593.703 412.569,587.761L412.569,543.527L351.424,543.527C346.329,543.527 341.012,538.465 341.012,532.303L341.012,488.729L277.209,488.729C272.335,488.729 267.461,483.887 267.461,478.826L267.461,440.753C267.461,434.811 272.335,431.070 276.323,428.209L292.716,382.874C294.267,379.133 298.033,376.932 302.243,376.932L395.732,376.932C400.827,376.932 405.701,379.353 407.252,382.654L419.879,419.846L485.676,419.846C489.664,419.846 493.209,421.827 494.538,425.128L507.387,461.660L576.064,461.660C581.824,461.660 584.483,464.961 585.590,468.702L604.421,524.161C611.953,529.222 617.713,533.404 617.713,538.245L617.713,585.121C617.713,593.043 611.510,598.985 604.421,598.985ZM287.843,431.070L302.907,387.936L397.947,387.936L409.024,419.846L381.553,419.846C375.793,419.846 372.692,421.827 370.920,425.128L367.818,431.070ZM362.723,479.266L379.559,431.070L485.455,431.070L495.424,461.660L455.769,461.660C450.673,461.660 445.578,464.741 444.027,468.702L440.040,479.266ZM437.381,527.682L455.326,473.764L573.627,473.764L592.901,527.682Z"/>
    <path fill="#FF0000" fill-rule="evenodd" stroke="none" d="M45,724C25.670,724 10,708.329 10,689C10,682.856 11.617,676.820 14.689,671.500L386.746,27.077C392.998,16.248 404.553,9.577 417.057,9.577C429.562,9.577 441.116,16.248 447.368,27.077L819.426,671.500C822.498,676.820 824.115,682.856 824.115,689C824.115,708.329 808.445,724 789.115,724ZM105.621,664C100.098,664 95.621,659.522 95.621,654C95.621,652.244 96.083,650.520 96.961,649L408.397,109.577C410.183,106.483 413.485,104.577 417.057,104.577C420.630,104.577 423.931,106.483 425.717,109.577L737.153,649C738.031,650.520 738.493,652.244 738.493,654C738.493,659.522 734.016,664 728.493,664Z"/>
  </g>
</svg>
