<?xml version="1.0" encoding="UTF-8"?>
<svg version="1.1" id="background" xmlns="http://www.w3.org/2000/svg" xmlns:xlink="http://www.w3.org/1999/xlink" width="834mm" height="734mm" viewBox="0 0 834 734" xml:space="preserve">
  <g>
    <path fill="#FFFFFF" fill-rule="evenodd" stroke="none" d="M45,734C20.147,734 0,713.852 0,689C0,681.100 2.079,673.340 6.028,666.500L378.086,22.077C386.125,8.154 400.980,0.422 417.057,0.422C433.134,0.422 447.990,8.154 456.028,22.077L828.086,666.500C832.036,673.340 834.115,681.100 834.115,689C834.115,713.852 813.968,734 789.115,734Z"/>
    <path fill="black" fill-rule="evenodd" stroke="none" d="M411.904,632.216L379.338,613.070L346.772,632.216L354.304,636.617L404.372,636.617ZM384.433,566.194L417,585.341L449.566,566.194L417,547.048ZM411.904,588.202L379.338,569.055L346.772,588.202L379.338,607.348ZM346.772,500.173L379.338,519.319L411.904,500.173L379.338,481.026ZM417,541.326L449.566,522.180L417,503.034L384.433,522.180ZM454.661,569.055L422.095,588.202L454.661,607.348L487.227,588.202ZM454.661,563.333L487.227,544.187L454.661,525.041L422.095,544.187ZM487.227,632.216L454.661,613.070L422.095,632.216L429.627,636.617L479.695,636.617ZM419.658,636.617L417,635.077L414.341,636.617ZM430.956,643.220L239.769,643.220L239.769,458.359L594.230,458.359L594.230,643.220ZM339.018,636.617L344.335,636.617L341.676,635.077ZM309.110,610.209L341.676,629.355L374.243,610.209L341.676,591.063ZM263.695,636.617L269.012,636.617L266.353,635.077ZM304.015,607.348L336.581,588.202L304.015,569.055L271.449,588.202ZM336.581,632.216L304.015,613.070L271.449,632.216L278.981,636.617L329.049,636.617ZM309.110,522.180L341.676,541.326L374.243,522.180L341.676,503.034ZM336.581,544.187L304.015,525.041L271.449,544.187L304.015,563.333ZM286.513,464.961L304.015,475.304L321.516,464.961ZM304.015,519.319L336.581,500.173L304.015,481.026L271.449,500.173ZM487.227,500.173L454.661,481.026L422.095,500.173L454.661,519.319ZM562.550,500.173L529.984,481.026L497.418,500.173L529.984,519.319ZM492.323,503.034L459.756,522.180L492.323,541.326L524.889,522.180ZM492.323,547.048L459.756,566.194L492.323,585.341L524.889,566.194ZM562.550,588.202L529.984,569.055L497.418,588.202L529.984,607.348ZM587.584,534.064L570.526,544.187L587.584,554.310ZM587.584,466.282L587.584,464.961L585.590,464.961ZM577.836,464.961L557.455,464.961L535.080,478.165L567.646,497.312L587.584,485.648L587.584,470.683ZM587.584,510.296L587.584,490.049L570.526,500.173ZM567.646,503.034L535.080,522.180L567.646,541.326L587.584,529.662L587.584,514.697ZM587.584,598.325L587.584,578.078L570.526,588.202ZM524.889,610.209L492.323,591.063L459.756,610.209L492.323,629.355ZM567.646,635.077L564.987,636.617L570.304,636.617ZM587.584,602.726L567.646,591.063L535.080,610.209L567.646,629.355L587.584,617.691ZM489.664,636.617L494.981,636.617L492.323,635.077ZM529.984,613.070L497.418,632.216L504.950,636.617L555.018,636.617L562.550,632.216ZM570.526,632.216L578.058,636.617L587.584,636.617L587.584,622.093ZM535.080,566.194L567.646,585.341L587.584,573.677L587.584,558.712L567.646,547.048ZM562.550,544.187L529.984,525.041L497.418,544.187L529.984,563.333ZM512.483,464.961L529.984,475.304L547.486,464.961ZM298.920,478.165L276.544,464.961L256.163,464.961L246.415,470.683L246.415,485.648L266.353,497.312ZM261.258,500.173L246.415,491.370L246.415,508.976ZM266.353,503.034L246.415,514.697L246.415,529.662L266.353,541.326L298.920,522.180ZM261.258,544.187L246.415,535.384L246.415,552.990ZM266.353,547.048L246.415,558.712L246.415,573.677L266.353,585.341L298.920,566.194ZM261.258,588.202L246.415,579.399L246.415,597.004ZM261.258,632.216L246.415,623.413L246.415,636.617L253.726,636.617ZM246.415,617.691L266.353,629.355L298.920,610.209L266.353,591.063L246.415,602.726ZM341.676,547.048L309.110,566.194L341.676,585.341L374.243,566.194ZM384.433,610.209L417,629.355L449.566,610.209L417,591.063ZM379.338,563.333L411.904,544.187L379.338,525.041L346.772,544.187Z"/>
    <path fill="black" fill-rule="evenodd" stroke="none" d="M318.415,499.732C306.452,499.732 297.369,491.150 297.369,485.428L297.369,429.309C297.369,421.607 306.452,409.283 318.415,409.283L338.132,345.022C341.233,337.979 346.329,335.779 354.747,335.779L479.473,335.779C488.335,335.779 494.760,338.860 496.975,345.022L517.356,409.283C528.876,409.283 536.630,422.927 536.630,429.309L536.630,485.428C536.630,490.930 528.876,499.732 517.578,499.732L318.415,499.732ZM331.264,406.202L331.264,406.202L346.550,360.207C348.323,355.145 352.532,350.964 355.412,350.964L479.473,350.964C483.018,350.964 488.113,355.145 489.886,360.207L504.286,406.202L331.264,406.202ZM318.415,514.697L318.415,514.697L355.855,514.697L355.855,536.705C355.855,547.488 346.107,553.870 337.246,553.870C327.720,553.870 318.415,547.488 318.415,536.705L318.415,514.697ZM479.473,514.697L479.473,514.697L517.135,514.697L517.135,536.925C517.135,547.928 507.166,554.310 498.083,554.310C489,554.310 479.473,547.928 479.473,536.925L479.473,514.697Z"/>
    <path fill="#FF0000" fill-rule="evenodd" stroke="none" d="M45,724C25.670,724 10,708.329 10,689C10,682.856 11.617,676.820 14.689,671.500L386.746,27.077C392.998,16.248 404.553,9.577 417.057,9.577C429.562,9.577 441.116,16.248 447.368,27.077L819.426,671.500C822.498,676.820 824.115,682.856 824.115,689C824.115,708.329 808.445,724 789.115,724ZM105.621,664C100.098,664 95.621,659.522 95.621,654C95.621,652.244 96.083,650.520 96.961,649L408.397,109.577C410.183,106.483 413.485,104.577 417.057,104.577C420.630,104.577 423.931,106.483 425.717,109.577L737.153,649C738.031,650.520 738.493,652.244 738.493,654C738.493,659.522 734.016,664 728.493,664Z"/>
  </g>
</svg>
