<?xml version="1.0" encoding="UTF-8"?>
<svg version="1.1" id="background" xmlns="http://www.w3.org/2000/svg" xmlns:xlink="http://www.w3.org/1999/xlink" width="350mm" height="700mm" viewBox="0 0 350 700" xml:space="preserve">
  <g>
    <path fill="#FFFFFF" fill-rule="evenodd" stroke="none" d="M0,45C0,20.147 20.147,0 45,0L305,0C329.852,0 350,20.147 350,45L350,655C350,679.852 329.852,700 305,700L45,700C20.147,700 0,679.852 0,655L0,45Z"/>
    <path fill="black" fill-rule="evenodd" stroke="none" d="M10,45C10,25.670 25.670,10 45,10L305,10C324.329,10 340,25.670 340,45L340,655C340,674.329 324.329,690 305,690L45,690C25.670,690 10,674.329 10,655L10,45ZM20,45C20,31.192 31.192,20 45,20L305,20C318.807,20 330,31.192 330,45L330,655C330,668.807 318.807,680 305,680L45,680C31.192,680 20,668.807 20,655L20,45Z"/>
    <path fill="#FF0000" fill-rule="evenodd" stroke="none" d="M330,406.451L330,347.741L20,528.387L20,587.096ZM330,289.032L330,230.322L20,410.967L20,469.677ZM330,171.612L330,112.903L20,293.548L20,352.258Z"/>
  </g>
</svg>
