<?xml version="1.0" encoding="UTF-8"?>
<svg version="1.1" id="background" xmlns="http://www.w3.org/2000/svg" xmlns:xlink="http://www.w3.org/1999/xlink" width="834mm" height="734mm" viewBox="0 0 834 734" xml:space="preserve">
  <g>
    <path fill="#FFFFFF" fill-rule="evenodd" stroke="none" d="M45,734C20.147,734 0,713.852 0,689C0,681.100 2.079,673.340 6.028,666.500L378.086,22.077C386.125,8.154 400.980,0.422 417.057,0.422C433.134,0.422 447.990,8.154 456.028,22.077L828.086,666.500C832.036,673.340 834.115,681.100 834.115,689C834.115,713.852 813.968,734 789.115,734Z"/>
    <path fill="black" fill-rule="evenodd" stroke="none" d="M408.138,357.126L408.138,341.721L423.646,341.721L423.646,357.126L483.461,405.542L450.230,442.954L383.769,442.954L350.538,405.542ZM368.261,407.742L417,368.129L465.738,407.742L443.584,431.950L390.415,431.950ZM253.061,601.406C253.061,583.800 268.569,570.596 284.076,570.596L337.246,570.596C354.969,570.596 370.476,583.800 370.476,601.406L463.523,601.406C463.523,583.800 481.246,570.596 494.538,570.596L554.353,570.596C569.861,570.596 580.938,583.800 580.938,601.406L598.661,601.406C607.523,601.406 616.384,592.603 616.384,583.800L616.384,528.782C616.384,517.338 615.498,514.037 610.403,503.694L587.806,458.799C586.255,455.498 583.596,453.957 579.830,453.957L258.600,453.957C254.612,453.957 252.396,455.278 250.403,458.799L226.033,503.914C220.716,514.037 219.830,517.338 219.830,528.782L219.830,583.800C219.830,592.603 228.692,601.406 237.553,601.406ZM239.769,517.778C233.123,517.778 228.692,513.377 233.123,506.775L250.846,473.764C253.061,469.363 257.492,467.162 259.707,467.162L270.784,467.162C273,467.162 275.215,471.563 275.215,473.764L275.215,508.976C275.215,515.578 273,517.778 270.784,517.778ZM301.800,517.778C299.584,517.778 295.153,513.377 295.153,508.976L295.153,473.764C295.153,471.563 299.584,467.162 301.800,467.162L359.399,467.162C361.615,467.162 366.046,471.563 366.046,473.764L366.046,508.976C366.046,513.377 361.615,517.778 359.399,517.778ZM385.984,517.778C383.769,517.778 379.338,513.377 379.338,508.976L379.338,473.764C379.338,471.563 383.769,467.162 385.984,467.162L448.015,467.162C452.446,467.162 454.661,471.563 454.661,473.764L454.661,508.976C454.661,513.377 452.446,517.778 448.015,517.778ZM476.815,517.778C474.600,517.778 470.169,513.377 470.169,508.976L470.169,473.764C470.169,471.563 474.600,467.162 476.815,467.162L538.846,467.162C541.061,467.162 543.276,471.563 543.276,473.764L543.276,508.976C543.276,513.377 541.061,517.778 538.846,517.778ZM563.215,517.778C561,517.778 556.569,513.377 556.569,508.976L556.569,473.764C556.569,471.563 561,467.162 563.215,467.162L574.292,467.162C578.723,467.162 580.938,469.363 583.153,473.764L600.876,506.775C605.307,515.578 598.661,517.778 594.230,517.778ZM312.876,612.410C310.661,621.212 301.800,630.015 288.507,630.015C275.215,630.015 264.138,619.012 264.138,605.807C264.138,590.402 275.215,579.399 288.507,579.399C301.800,579.399 310.661,588.202 312.876,597.004C315.092,588.202 323.953,579.399 335.030,579.399C348.323,579.399 359.399,590.402 359.399,605.807C359.399,619.012 348.323,630.015 335.030,630.015C323.953,630.015 315.092,621.212 312.876,612.410ZM523.338,612.410C521.123,621.212 512.261,630.015 498.969,630.015C485.676,630.015 474.600,619.012 474.600,605.807C474.600,590.402 485.676,579.399 498.969,579.399C512.261,579.399 521.123,588.202 523.338,597.004C525.553,588.202 534.415,579.399 545.492,579.399C558.784,579.399 569.861,590.402 569.861,605.807C569.861,619.012 558.784,630.015 545.492,630.015C534.415,630.015 525.553,621.212 523.338,612.410Z"/>
    <path fill="#FF0000" fill-rule="evenodd" stroke="none" d="M45,724C25.670,724 10,708.329 10,689C10,682.856 11.617,676.820 14.689,671.500L386.746,27.077C392.998,16.248 404.553,9.577 417.057,9.577C429.562,9.577 441.116,16.248 447.368,27.077L819.426,671.500C822.498,676.820 824.115,682.856 824.115,689C824.115,708.329 808.445,724 789.115,724ZM105.621,664C100.098,664 95.621,659.522 95.621,654C95.621,652.244 96.083,650.520 96.961,649L408.397,109.577C410.183,106.483 413.485,104.577 417.057,104.577C420.630,104.577 423.931,106.483 425.717,109.577L737.153,649C738.031,650.520 738.493,652.244 738.493,654C738.493,659.522 734.016,664 728.493,664Z"/>
  </g>
</svg>
