<?xml version="1.0" encoding="UTF-8"?>
<svg version="1.1" id="background" xmlns="http://www.w3.org/2000/svg" xmlns:xlink="http://www.w3.org/1999/xlink" width="834mm" height="734mm" viewBox="0 0 834 734" xml:space="preserve">
  <g>
    <path fill="#FFFFFF" fill-rule="evenodd" stroke="none" d="M45,734C20.147,734 0,713.852 0,689C0,681.100 2.079,673.340 6.028,666.500L378.086,22.077C386.125,8.154 400.980,0.422 417.057,0.422C433.134,0.422 447.990,8.154 456.028,22.077L828.086,666.500C832.036,673.340 834.115,681.100 834.115,689C834.115,713.852 813.968,734 789.115,734Z"/>
    <path fill="black" fill-rule="evenodd" stroke="none" d="M296.483,585.341C271.006,556.951 255.498,519.539 255.498,478.385C255.498,457.699 259.486,438.112 266.575,419.846L314.206,438.332C309.332,450.876 306.673,464.301 306.673,478.385C306.673,499.953 312.876,520.199 323.732,537.145L345.443,501.053L411.461,620.992L276.544,620.992ZM425.861,402.681L293.824,402.901L360.507,287.363L382.440,321.694C393.516,319.273 405.036,317.953 417,317.953C467.953,317.953 513.590,341.501 543.055,378.253L503.178,410.163C483.018,385.075 452.003,368.789 417,368.789C413.233,368.789 409.689,369.010 406.144,369.450ZM569.196,531.863C549.479,587.541 499.855,628.915 439.596,637.278L432.729,586.881C467.289,582.040 496.753,561.133 513.147,532.083L469.283,532.083L537.959,413.904L604.864,532.083Z"/>
    <path fill="#FF0000" fill-rule="evenodd" stroke="none" d="M45,724C25.670,724 10,708.329 10,689C10,682.856 11.617,676.820 14.689,671.500L386.746,27.077C392.998,16.248 404.553,9.577 417.057,9.577C429.562,9.577 441.116,16.248 447.368,27.077L819.426,671.500C822.498,676.820 824.115,682.856 824.115,689C824.115,708.329 808.445,724 789.115,724ZM105.621,664C100.098,664 95.621,659.522 95.621,654C95.621,652.244 96.083,650.520 96.961,649L408.397,109.577C410.183,106.483 413.485,104.577 417.057,104.577C420.630,104.577 423.931,106.483 425.717,109.577L737.153,649C738.031,650.520 738.493,652.244 738.493,654C738.493,659.522 734.016,664 728.493,664Z"/>
  </g>
</svg>
