<?xml version="1.0" encoding="UTF-8"?>
<svg version="1.1" id="background" xmlns="http://www.w3.org/2000/svg" xmlns:xlink="http://www.w3.org/1999/xlink" width="834mm" height="734mm" viewBox="0 0 834 734" xml:space="preserve">
  <g>
    <path fill="#FFFFFF" fill-rule="evenodd" stroke="none" d="M45,734C20.147,734 0,713.852 0,689C0,681.100 2.079,673.340 6.028,666.500L378.086,22.077C386.125,8.154 400.980,0.422 417.057,0.422C433.134,0.422 447.990,8.154 456.028,22.077L828.086,666.500C832.036,673.340 834.115,681.100 834.115,689C834.115,713.852 813.968,734 789.115,734Z"/>
    <path fill="#008000" fill-rule="evenodd" stroke="none" d="M417,528.782C390.082,528.782 368.261,550.459 368.261,577.198C368.261,603.937 390.082,625.614 417,625.614C443.917,625.614 465.738,603.937 465.738,577.198C465.738,550.459 443.917,528.782 417,528.782Z"/>
    <path fill="#FFC000" fill-rule="evenodd" stroke="none" d="M417,396.739C390.082,396.739 368.261,418.415 368.261,445.155C368.261,471.894 390.082,493.570 417,493.570C443.917,493.570 465.738,471.894 465.738,445.155C465.738,418.415 443.917,396.739 417,396.739Z"/>
    <path fill="#FF0000" fill-rule="evenodd" stroke="none" d="M417,264.695C390.082,264.695 368.261,286.372 368.261,313.111C368.261,339.851 390.082,361.527 417,361.527C443.917,361.527 465.738,339.851 465.738,313.111C465.738,286.372 443.917,264.695 417,264.695Z"/>
    <path fill="black" fill-rule="evenodd" stroke="none" d="M417,517.778C383.964,517.778 357.184,544.381 357.184,577.198C357.184,610.014 383.964,636.617 417,636.617C450.035,636.617 476.815,610.014 476.815,577.198C476.815,544.381 450.035,517.778 417,517.778ZM417,528.782C390.082,528.782 368.261,550.459 368.261,577.198C368.261,603.937 390.082,625.614 417,625.614C443.917,625.614 465.738,603.937 465.738,577.198C465.738,550.459 443.917,528.782 417,528.782ZM417,385.735C383.964,385.735 357.184,412.338 357.184,445.155C357.184,477.971 383.964,504.574 417,504.574C450.035,504.574 476.815,477.971 476.815,445.155C476.815,412.338 450.035,385.735 417,385.735ZM417,396.739C390.082,396.739 368.261,418.415 368.261,445.155C368.261,471.894 390.082,493.570 417,493.570C443.917,493.570 465.738,471.894 465.738,445.155C465.738,418.415 443.917,396.739 417,396.739ZM417,253.692C383.964,253.692 357.184,280.295 357.184,313.111C357.184,345.928 383.964,372.531 417,372.531C450.035,372.531 476.815,345.928 476.815,313.111C476.815,280.295 450.035,253.692 417,253.692ZM417,264.695C390.082,264.695 368.261,286.372 368.261,313.111C368.261,339.851 390.082,361.527 417,361.527C443.917,361.527 465.738,339.851 465.738,313.111C465.738,286.372 443.917,264.695 417,264.695Z"/>
    <path fill="#FF0000" fill-rule="evenodd" stroke="none" d="M45,724C25.670,724 10,708.329 10,689C10,682.856 11.617,676.820 14.689,671.500L386.746,27.077C392.998,16.248 404.553,9.577 417.057,9.577C429.562,9.577 441.116,16.248 447.368,27.077L819.426,671.500C822.498,676.820 824.115,682.856 824.115,689C824.115,708.329 808.445,724 789.115,724ZM105.621,664C100.098,664 95.621,659.522 95.621,654C95.621,652.244 96.083,650.520 96.961,649L408.397,109.577C410.183,106.483 413.485,104.577 417.057,104.577C420.630,104.577 423.931,106.483 425.717,109.577L737.153,649C738.031,650.520 738.493,652.244 738.493,654C738.493,659.522 734.016,664 728.493,664Z"/>
  </g>
</svg>
