<?xml version="1.0" encoding="UTF-8"?>
<svg version="1.1" id="background" xmlns="http://www.w3.org/2000/svg" xmlns:xlink="http://www.w3.org/1999/xlink" width="834mm" height="734mm" viewBox="0 0 834 734" xml:space="preserve">
  <g>
    <path fill="#FFFFFF" fill-rule="evenodd" stroke="none" d="M45,734C20.147,734 0,713.852 0,689C0,681.100 2.079,673.340 6.028,666.500L378.086,22.077C386.125,8.154 400.980,0.422 417.057,0.422C433.134,0.422 447.990,8.154 456.028,22.077L828.086,666.500C832.036,673.340 834.115,681.100 834.115,689C834.115,713.852 813.968,734 789.115,734Z"/>
    <path fill="black" fill-rule="evenodd" stroke="none" d="M286.292,566.194C301.800,566.194 312.876,557.391 328.384,557.391C343.892,557.391 359.399,566.194 372.692,566.194C388.200,566.194 403.707,557.391 417,557.391C432.507,557.391 448.015,566.194 463.523,566.194C476.815,566.194 492.323,557.391 505.615,557.391C521.123,557.391 534.415,566.194 549.923,566.194C549.923,581.599 549.923,581.599 549.923,581.599C534.415,581.599 521.123,574.997 505.615,574.997C492.323,574.997 476.815,581.599 463.523,581.599C448.015,581.599 432.507,574.997 417,574.997C403.707,574.997 388.200,581.599 372.692,581.599C359.399,581.599 343.892,574.997 328.384,574.997C312.876,574.997 301.800,581.599 286.292,581.599C286.292,566.194 286.292,566.194 286.292,566.194ZM286.292,594.804C301.800,594.804 312.876,586.001 328.384,586.001C343.892,586.001 359.399,594.804 372.692,594.804C388.200,594.804 403.707,586.001 417,586.001C432.507,586.001 448.015,594.804 463.523,594.804C476.815,594.804 492.323,586.001 505.615,586.001C521.123,586.001 534.415,594.804 549.923,594.804C549.923,610.209 549.923,610.209 549.923,610.209C534.415,610.209 521.123,603.607 505.615,603.607C492.323,603.607 476.815,610.209 463.523,610.209C448.015,610.209 432.507,603.607 417,603.607C403.707,603.607 388.200,610.209 372.692,610.209C359.399,610.209 343.892,603.607 328.384,603.607C312.876,603.607 301.800,610.209 286.292,610.209C286.292,594.804 286.292,594.804 286.292,594.804ZM286.292,625.614C301.800,625.614 312.876,616.811 328.384,616.811C343.892,616.811 359.399,625.614 372.692,625.614C388.200,625.614 403.707,616.811 417,616.811C432.507,616.811 448.015,625.614 463.523,625.614C476.815,625.614 492.323,616.811 505.615,616.811C521.123,616.811 534.415,625.614 549.923,625.614C549.923,641.019 549.923,641.019 549.923,641.019C534.415,641.019 521.123,634.417 505.615,634.417C492.323,634.417 476.815,641.019 463.523,641.019C448.015,641.019 432.507,634.417 417,634.417C403.707,634.417 388.200,641.019 372.692,641.019C359.399,641.019 343.892,634.417 328.384,634.417C312.876,634.417 301.800,641.019 286.292,641.019C286.292,625.614 286.292,625.614 286.292,625.614ZM286.292,423.147L315.092,451.757L490.107,277.900L459.092,247.089ZM113.492,641.019L239.769,423.147L286.292,423.147L286.292,641.019ZM549.923,641.019L549.923,423.147L592.015,423.147L720.507,641.019Z"/>
    <path fill="#FF0000" fill-rule="evenodd" stroke="none" d="M45,724C25.670,724 10,708.329 10,689C10,682.856 11.617,676.820 14.689,671.500L386.746,27.077C392.998,16.248 404.553,9.577 417.057,9.577C429.562,9.577 441.116,16.248 447.368,27.077L819.426,671.500C822.498,676.820 824.115,682.856 824.115,689C824.115,708.329 808.445,724 789.115,724ZM105.621,664C100.098,664 95.621,659.522 95.621,654C95.621,652.244 96.083,650.520 96.961,649L408.397,109.577C410.183,106.483 413.485,104.577 417.057,104.577C420.630,104.577 423.931,106.483 425.717,109.577L737.153,649C738.031,650.520 738.493,652.244 738.493,654C738.493,659.522 734.016,664 728.493,664Z"/>
  </g>
</svg>
