<?xml version="1.0" encoding="UTF-8"?>
<svg version="1.1" id="background" xmlns="http://www.w3.org/2000/svg" xmlns:xlink="http://www.w3.org/1999/xlink" width="700mm" height="700mm" viewBox="0 0 700 700" xml:space="preserve">
  <g>
    <path fill="#FFFFFF" fill-rule="evenodd" stroke="none" d="M350,0C156.700,0 0,156.700 0,350C0,543.299 156.700,700 350,700C543.299,700 700,543.299 700,350C700,156.700 543.299,0 350,0Z"/>
    <path fill="#FF0000" fill-rule="evenodd" stroke="none" d="M350,10C162.223,10 10,162.223 10,350C10,537.776 162.223,690 350,690C537.776,690 690,537.776 690,350C690,162.223 537.776,10 350,10ZM350,67.741C194.113,67.741 67.741,194.113 67.741,350C67.741,505.886 194.113,632.258 350,632.258C505.886,632.258 632.258,505.886 632.258,350C632.258,194.113 505.886,67.741 350,67.741Z"/>
  </g>
</svg>
