<?xml version="1.0" encoding="UTF-8"?>
<svg version="1.1" id="background" xmlns="http://www.w3.org/2000/svg" xmlns:xlink="http://www.w3.org/1999/xlink" width="700mm" height="700mm" viewBox="0 0 700 700" xml:space="preserve">
  <g>
    <path fill="#FFFFFF" fill-rule="evenodd" stroke="none" d="M350,0C156.700,0 0,156.700 0,350C0,543.299 156.700,700 350,700C543.299,700 700,543.299 700,350C700,156.700 543.299,0 350,0Z"/>
    <path fill="black" fill-rule="evenodd" stroke="none" d="M184.709,426.096C165.741,426.096 151.290,415.709 151.290,406.451L151.290,316.129C151.290,303.935 163.483,298.741 174.774,293.548L219.032,180.645C223.774,169.129 232.580,165.516 246.580,165.516L451.612,165.516C466.741,165.516 477.354,170.483 480.967,180.645L528.161,293.548C538.548,300.322 548.935,305.741 548.935,316.129L548.935,406.451C548.935,414.806 534.483,426.096 519.354,426.096ZM198.258,293.548L235.064,203.225C238.677,194.419 242.516,190.129 248.387,190.129L451.612,189.903C457.709,190.129 462.225,194.193 465.838,203.225L501.967,293.548ZM215.193,516.870C199.838,516.870 184.709,506.032 184.709,488.870L184.709,440.774L246.580,440.774L246.580,489.548C246.580,506.483 230.096,516.870 215.193,516.870ZM485.032,516.870C469.677,516.870 454.774,506.032 454.774,488.870L454.774,440.774L516.419,440.774L516.419,489.548C516.419,506.483 500.161,516.870 485.032,516.870ZM214.516,318.387C197.129,318.387 182.903,332.612 182.903,350C182.903,367.387 197.129,381.612 214.516,381.612C231.903,381.612 246.129,367.387 246.129,350C246.129,332.612 231.903,318.387 214.516,318.387ZM485.483,318.387C468.096,318.387 453.870,332.612 453.870,350C453.870,367.387 468.096,381.612 485.483,381.612C502.870,381.612 517.096,367.387 517.096,350C517.096,332.612 502.870,318.387 485.483,318.387Z"/>
    <path fill="#FF0000" fill-rule="evenodd" stroke="none" d="M350,10C162.223,10 10,162.223 10,350C10,537.776 162.223,690 350,690C537.776,690 690,537.776 690,350C690,162.223 537.776,10 350,10ZM350,67.741C194.113,67.741 67.741,194.113 67.741,350C67.741,505.886 194.113,632.258 350,632.258C505.886,632.258 632.258,505.886 632.258,350C632.258,194.113 505.886,67.741 350,67.741Z"/>
  </g>
</svg>
