<?xml version="1.0" encoding="UTF-8"?>
<svg version="1.1" id="background" xmlns="http://www.w3.org/2000/svg" xmlns:xlink="http://www.w3.org/1999/xlink" width="700mm" height="700mm" viewBox="0 0 700 700" xml:space="preserve">
  <g>
    <path fill="#FFFFFF" fill-rule="evenodd" stroke="none" d="M350,0C156.700,0 0,156.700 0,350C0,543.299 156.700,700 350,700C543.299,700 700,543.299 700,350C700,156.700 543.299,0 350,0Z"/>
    <path fill="black" fill-rule="evenodd" stroke="none" d="M377.443,281.020C378.998,282.008 380.717,282.849 382.619,283.526C384.521,282.849 386.240,282.008 387.795,281.020C389.367,280.032 390.702,278.880 391.836,277.563C392.952,276.265 393.830,274.820 394.433,273.229C395.055,271.656 395.348,269.974 395.348,268.218C395.348,266.462 395.019,264.816 394.342,263.280C393.665,261.744 392.751,260.390 391.599,259.238C390.446,258.086 389.093,257.171 387.557,256.495C386.021,255.818 384.375,255.489 382.619,255.489C380.863,255.489 379.217,255.818 377.681,256.495C376.145,257.171 374.791,258.086 373.639,259.238C372.487,260.390 371.572,261.744 370.896,263.280C370.219,264.816 369.890,266.462 369.890,268.218C369.890,269.974 370.182,271.656 370.804,273.229C371.408,274.820 372.286,276.265 373.401,277.563C374.535,278.880 375.889,280.032 377.443,281.020L377.443,281.020ZM415.667,316.519C415.667,318.457 415.484,320.359 415.100,322.243C414.716,324.109 414.149,325.937 413.381,327.730C412.613,329.504 411.662,331.223 410.564,332.832C409.449,334.460 408.187,335.996 406.760,337.405C405.352,338.831 403.761,340.130 402.023,341.300C400.286,342.489 398.402,343.476 396.372,344.281C394.342,345.104 392.184,345.726 389.898,346.183C387.612,346.640 385.216,346.860 382.692,346.860C380.113,346.860 377.681,346.640 375.413,346.183C373.127,345.726 370.969,345.104 368.939,344.281C366.909,343.476 365.025,342.489 363.287,341.300C361.550,340.130 359.941,338.831 358.496,337.405C357.051,335.996 355.789,334.460 354.673,332.832C353.576,331.223 352.643,329.504 351.875,327.730C351.107,325.937 350.522,324.109 350.138,322.243C349.754,320.359 349.571,318.457 349.571,316.519C349.571,314.342 349.827,312.075 350.376,309.679C350.924,307.283 351.784,304.942 352.991,302.656C354.180,300.388 355.698,298.212 357.563,296.127C359.410,294.042 361.623,292.268 364.202,290.768C362.080,289.232 360.252,287.513 358.715,285.592C357.179,283.672 355.917,281.715 354.948,279.703C353.978,277.691 353.265,275.698 352.808,273.704C352.369,271.711 352.131,269.882 352.131,268.218C352.131,266.956 352.259,265.584 352.515,264.085C352.753,262.603 353.155,261.085 353.722,259.549C354.289,258.013 355.021,256.458 355.899,254.904C356.777,253.349 357.819,251.849 359.044,250.404C360.270,248.960 361.660,247.625 363.214,246.399C364.769,245.192 366.525,244.113 368.500,243.180C370.457,242.266 372.615,241.534 374.956,241.022C377.315,240.510 379.894,240.236 382.692,240.236C385.435,240.236 387.996,240.510 390.337,241.022C392.696,241.534 394.854,242.266 396.811,243.180C398.768,244.113 400.542,245.192 402.096,246.399C403.651,247.625 405.023,248.960 406.230,250.404C407.419,251.849 408.461,253.349 409.339,254.904C410.217,256.458 410.948,258.013 411.515,259.549C412.082,261.085 412.485,262.603 412.759,264.085C413.033,265.584 413.161,266.956 413.161,268.218C413.161,269.882 412.942,271.711 412.485,273.704C412.046,275.698 411.332,277.691 410.363,279.703C409.394,281.715 408.132,283.672 406.596,285.592C405.059,287.513 403.230,289.232 401.109,290.768C403.688,292.268 405.901,294.042 407.748,296.127C409.595,298.212 411.113,300.388 412.283,302.656C413.454,304.942 414.313,307.283 414.862,309.679C415.411,312.075 415.667,314.342 415.667,316.519L415.667,316.519ZM388.892,301.650C387.008,300.443 384.923,299.492 382.619,298.760C380.314,299.492 378.229,300.443 376.346,301.650C374.480,302.839 372.871,304.247 371.536,305.875C370.219,307.502 369.176,309.368 368.463,311.471C367.732,313.574 367.384,315.879 367.384,318.421C367.384,319.353 367.494,320.268 367.713,321.164C367.951,322.042 368.262,322.883 368.701,323.688C369.122,324.511 369.652,325.279 370.256,325.992C370.859,326.724 371.536,327.382 372.249,327.968C372.981,328.553 373.749,329.101 374.553,329.595C375.376,330.089 376.236,330.491 377.132,330.802C378.028,331.131 378.943,331.369 379.875,331.552C380.808,331.735 381.723,331.826 382.619,331.826C383.515,331.826 384.429,331.735 385.362,331.552C386.295,331.369 387.209,331.131 388.105,330.802C389.002,330.491 389.861,330.089 390.684,329.595C391.489,329.101 392.257,328.553 392.989,327.968C393.702,327.382 394.379,326.724 394.982,325.992C395.586,325.279 396.116,324.511 396.537,323.688C396.976,322.883 397.305,322.042 397.524,321.164C397.744,320.268 397.853,319.353 397.853,318.421C397.853,315.879 397.506,313.574 396.774,311.471C396.061,309.368 395.019,307.502 393.702,305.875C392.367,304.247 390.757,302.839 388.892,301.650L388.892,301.650ZM430.021,273.229L485.912,273.229L485.912,285.958L465.593,285.958L465.593,344.354L450.340,344.354L450.340,285.958L430.021,285.958L430.021,273.229ZM135.258,439.193C125.774,439.193 116.967,430.838 116.967,420.677L116.967,345.032L156.709,277.741C160.774,270.967 165.516,266.903 171.161,266.903L241.838,266.903C251.096,266.903 259.903,276.161 259.903,283.838L259.903,396.967L454.548,396.967C439.419,405.096 429.258,420.903 429.258,439.193L251.548,439.193C251.548,412.774 230.096,391.548 203.903,391.548C177.483,391.548 156.258,412.774 156.258,439.193ZM158.290,338.709C148.580,338.709 143.387,326.064 150.161,316.129L171.161,283.838L226.258,283.838C231.225,283.838 234.838,289.709 234.838,294.225L234.838,325.387C234.838,332.838 227.612,338.709 223.096,338.709ZM524.548,439.193C524.548,420.903 514.387,405.096 499.258,397.193L567.225,396.967L567.225,439.193ZM272.096,382.064L272.096,225.806C272.096,213.612 282.258,203.225 293.548,203.225L541.935,203.225C555.258,203.225 567.225,213.838 567.225,225.806L567.225,382.064ZM203.903,402.612C183.806,402.612 167.322,418.870 167.322,439.193C167.322,459.290 183.806,475.548 203.903,475.548C224,475.548 240.483,459.290 240.483,439.193C240.483,418.870 224,402.612 203.903,402.612ZM203.903,420.451C193.516,420.451 185.161,428.806 185.161,439.193C185.161,449.580 193.516,457.935 203.903,457.935C214.290,457.935 222.645,449.580 222.645,439.193C222.645,428.806 214.290,420.451 203.903,420.451ZM476.903,402.612C456.806,402.612 440.322,418.870 440.322,439.193C440.322,459.290 456.806,475.548 476.903,475.548C497.000,475.548 513.483,459.290 513.483,439.193C513.483,418.870 497.000,402.612 476.903,402.612ZM476.903,420.451C466.516,420.451 458.161,428.806 458.161,439.193C458.161,449.580 466.516,457.935 476.903,457.935C487.290,457.935 495.645,449.580 495.645,439.193C495.645,428.806 487.290,420.451 476.903,420.451Z"/>
    <path fill="#FF0000" fill-rule="evenodd" stroke="none" d="M350,10C162.223,10 10,162.223 10,350C10,537.776 162.223,690 350,690C537.776,690 690,537.776 690,350C690,162.223 537.776,10 350,10ZM350,67.741C194.113,67.741 67.741,194.113 67.741,350C67.741,505.886 194.113,632.258 350,632.258C505.886,632.258 632.258,505.886 632.258,350C632.258,194.113 505.886,67.741 350,67.741Z"/>
  </g>
</svg>
