<?xml version="1.0" encoding="UTF-8"?>
<svg version="1.1" id="background" xmlns="http://www.w3.org/2000/svg" xmlns:xlink="http://www.w3.org/1999/xlink" width="700mm" height="700mm" viewBox="0 0 700 700" xml:space="preserve">
  <g>
    <path fill="#FFFFFF" fill-rule="evenodd" stroke="none" d="M350,0C156.700,0 0,156.700 0,350C0,543.299 156.700,700 350,700C543.299,700 700,543.299 700,350C700,156.700 543.299,0 350,0Z"/>
    <path fill="black" fill-rule="evenodd" stroke="none" d="M226.032,336.225C251.548,349.322 268.935,375.741 268.935,406.451C268.935,450.032 233.483,485.483 189.903,485.483C146.096,485.483 110.870,450.032 110.870,406.451C110.870,362.870 146.096,327.419 189.903,327.419C197.580,327.419 205.258,328.548 212.258,330.580L237.322,266.677L225.806,266.677C222.645,266.677 219.032,262.387 219.258,257.645L219.258,242.290C219.258,235.290 230.096,230.322 243.193,230.322L284.967,230.096C289.032,230.548 293.548,233.483 293.548,238.000C293.548,242.516 289.032,247.032 284.741,247.032L267.354,247.032L258.096,268.935L338.709,268.935C347.516,268.935 352.709,274.580 352.935,284.741C352.709,297.838 347.516,305.741 338.709,305.741L293.548,305.741C287,305.741 278.419,313.870 281.129,322.451L291.290,361.290C293.548,369.419 296.935,372.354 302.806,372.354L335.548,372.354L364.677,326.741L435.806,326.741C441.451,326.741 444.161,336.903 441.000,340.516L436.032,345.709C422.032,361.967 413.451,383.193 413.451,406.451C413.451,417.290 415.258,427.677 418.645,437.387L316.129,437.387C299.645,437.387 288.129,426.096 283.387,406.451L248.387,284.290ZM202.096,356.096C198.258,355.193 194.193,354.516 189.903,354.516C161.225,354.516 137.967,377.774 137.967,406.451C137.967,435.129 161.225,458.387 189.903,458.387C218.580,458.387 241.612,435.129 241.612,406.451C241.612,387.032 231.225,370.322 215.419,361.290L205.483,384.548C212.258,389.516 216.774,397.419 216.774,406.451C216.774,421.354 204.580,433.322 189.903,433.322C175,433.322 163.032,421.354 163.032,406.451C163.032,391.548 175,379.580 189.903,379.580C190.806,379.580 191.709,379.580 192.838,379.806ZM469.225,307.774L373.032,307.774L389.290,285.870C393.129,280.677 398.548,280.677 406.451,280.677L497.225,280.677C511.451,280.677 519.354,286.999 519.354,295.129C519.354,302.580 515.516,307.774 506.483,307.774L485.709,307.774L492.032,328.774C496.774,327.870 501.516,327.419 506.483,327.419C550.064,327.419 585.516,362.870 585.516,406.451C585.516,450.032 550.064,485.483 506.483,485.483C462.677,485.483 427.451,450.032 427.451,406.451C427.451,373.258 448,344.580 477.129,333.064ZM485.258,359.032C467.193,367.161 454.548,385.451 454.548,406.451C454.548,435.129 477.806,458.387 506.483,458.387C535.161,458.387 558.193,435.129 558.193,406.451C558.193,377.774 535.161,354.516 506.483,354.516C503.999,354.516 501.741,354.741 499.258,355.193L506.483,379.580C506.483,379.580 506.483,379.580 506.483,379.580C521.387,379.580 533.354,391.548 533.354,406.451C533.354,421.354 521.387,433.322 506.483,433.322C491.580,433.322 479.612,421.354 479.612,406.451C479.612,396.516 485.032,387.935 492.935,383.193Z"/>
    <path fill="#FF0000" fill-rule="evenodd" stroke="none" d="M350,10C162.223,10 10,162.223 10,350C10,537.776 162.223,690 350,690C537.776,690 690,537.776 690,350C690,162.223 537.776,10 350,10ZM350,67.741C194.113,67.741 67.741,194.113 67.741,350C67.741,505.886 194.113,632.258 350,632.258C505.886,632.258 632.258,505.886 632.258,350C632.258,194.113 505.886,67.741 350,67.741Z"/>
  </g>
</svg>
