<?xml version="1.0" encoding="UTF-8"?>
<svg version="1.1" id="background" xmlns="http://www.w3.org/2000/svg" xmlns:xlink="http://www.w3.org/1999/xlink" width="700mm" height="700mm" viewBox="0 0 700 700" xml:space="preserve">
  <g>
    <path fill="#FFFFFF" fill-rule="evenodd" stroke="none" d="M350,0C156.700,0 0,156.700 0,350C0,543.299 156.700,700 350,700C543.299,700 700,543.299 700,350C700,156.700 543.299,0 350,0Z"/>
    <path fill="black" fill-rule="evenodd" stroke="none" d="M240.483,429.483C231.225,405.322 207.967,388.387 180.645,388.387C171.612,388.387 163.258,390.193 155.354,393.354L155.806,316.129C155.806,301.903 166.645,289.483 180.645,289.483L258.774,289.483L258.774,200.290L281.580,200.290L281.580,289.483L336.451,289.483L383.870,193.741C388.387,184.709 396.064,180.645 406.451,180.645L495.193,180.645C511.451,180.645 519.354,191.483 519.354,200.290L519.354,294.903L536.967,314.322L513.709,340.741C505.354,338.032 496.322,336.677 486.838,336.677C435.806,336.677 394.483,377.999 394.483,429.032ZM381.838,289.483C371.903,289.483 362.645,276.838 367.612,266.677L395.161,210.677C398.322,205.032 401.709,201.419 406.451,201.419L474.193,201.419C483.451,201.419 489.322,207.290 489.322,212.709L489.322,273C489.322,281.580 483.225,289.483 474.193,289.483ZM180.645,401.483C152.419,401.483 129.612,424.290 129.612,452.290C129.612,480.516 152.419,503.322 180.645,503.322C208.870,503.322 231.677,480.516 231.677,452.290C231.677,424.290 208.870,401.483 180.645,401.483ZM180.645,423.387C164.612,423.387 151.741,436.483 151.741,452.290C151.741,468.322 164.612,481.193 180.645,481.193C196.677,481.193 209.548,468.322 209.548,452.290C209.548,436.483 196.677,423.387 180.645,423.387ZM486.838,348.193C442.354,348.193 405.999,384.548 405.999,429.032C405.999,473.516 442.354,509.870 486.838,509.870C531.548,509.870 567.677,473.516 567.677,429.032C567.677,384.548 531.548,348.193 486.838,348.193ZM486.838,382.741C461.322,382.741 440.548,403.516 440.548,429.032C440.548,454.548 461.322,475.322 486.838,475.322C512.354,475.322 533.129,454.548 533.129,429.032C533.129,403.516 512.354,382.741 486.838,382.741Z"/>
    <path fill="#FF0000" fill-rule="evenodd" stroke="none" d="M350,10C162.223,10 10,162.223 10,350C10,537.776 162.223,690 350,690C537.776,690 690,537.776 690,350C690,162.223 537.776,10 350,10ZM350,67.741C194.113,67.741 67.741,194.113 67.741,350C67.741,505.886 194.113,632.258 350,632.258C505.886,632.258 632.258,505.886 632.258,350C632.258,194.113 505.886,67.741 350,67.741Z"/>
  </g>
</svg>
