<?xml version="1.0" encoding="UTF-8"?>
<svg version="1.1" id="background" xmlns="http://www.w3.org/2000/svg" xmlns:xlink="http://www.w3.org/1999/xlink" width="700mm" height="700mm" viewBox="0 0 700 700" xml:space="preserve">
  <g>
    <path fill="#FFFFFF" fill-rule="evenodd" stroke="none" d="M350,0C156.700,0 0,156.700 0,350C0,543.299 156.700,700 350,700C543.299,700 700,543.299 700,350C700,156.700 543.299,0 350,0Z"/>
    <path fill="black" fill-rule="evenodd" stroke="none" d="M112.903,405.548L112.903,387.935L248.387,387.935L248.387,270.064L519.354,270.064L519.354,405.548L412.096,405.774C409.612,380.032 387.709,359.709 361.064,359.709C334.645,359.709 312.741,379.806 310.032,405.548ZM361.064,370.096C338.483,370.096 320.193,388.387 320.193,410.967C320.193,433.548 338.483,451.838 361.064,451.838C383.645,451.838 401.935,433.548 401.935,410.967C401.935,388.387 383.645,370.096 361.064,370.096ZM361.064,391.096C350.225,391.096 341.193,399.903 341.193,410.967C341.193,422.032 350.225,430.838 361.064,430.838C372.129,430.838 380.935,422.032 380.935,410.967C380.935,399.903 372.129,391.096 361.064,391.096Z"/>
    <path fill="#FF0000" fill-rule="evenodd" stroke="none" d="M350,10C162.223,10 10,162.223 10,350C10,537.776 162.223,690 350,690C537.776,690 690,537.776 690,350C690,162.223 537.776,10 350,10ZM350,67.741C194.113,67.741 67.741,194.113 67.741,350C67.741,505.886 194.113,632.258 350,632.258C505.886,632.258 632.258,505.886 632.258,350C632.258,194.113 505.886,67.741 350,67.741Z"/>
  </g>
</svg>
