<?xml version="1.0" encoding="UTF-8"?>
<svg version="1.1" id="background" xmlns="http://www.w3.org/2000/svg" xmlns:xlink="http://www.w3.org/1999/xlink" width="700mm" height="700mm" viewBox="0 0 700 700" xml:space="preserve">
  <g>
    <path fill="#FFFFFF" fill-rule="evenodd" stroke="none" d="M0,45C0,20.147 20.147,0 45,0L655,0C679.852,0 700,20.147 700,45L700,655C700,679.852 679.852,700 655,700L45,700C20.147,700 0,679.852 0,655Z"/>
    <path fill="#0000FF" fill-rule="evenodd" stroke="none" d="M20,45C20,31.192 31.192,20 45,20L655,20C668.807,20 680,31.192 680,45L680,655C680,668.807 668.807,680 655,680L45,680C31.192,680 20,668.807 20,655L20,45ZM67.200,567C59.468,567 53.200,560.731 53.200,553C53.200,550.542 53.846,548.128 55.075,546L338.826,54.528C341.327,50.196 345.949,47.528 350.951,47.528C355.953,47.528 360.574,50.196 363.075,54.528L646.826,546C648.055,548.128 648.702,550.542 648.702,553C648.702,560.731 642.434,567 634.702,567Z"/>
    <path fill="black" fill-rule="evenodd" stroke="none" d="M602,551.515L546.965,487.878L503.034,487.878L534.896,551.515ZM392.000,551.515L378.965,487.878L333.827,487.878L324.655,551.515ZM178.379,551.515L211.448,487.878L165.344,487.878L110.793,551.515ZM222.551,504.636C216.034,512.484 216.517,520.333 226.896,527.757C237.999,534.969 248.379,533.272 255.620,524.575L352.896,396.030L321.517,370.363ZM431.827,349.151C451.813,366.354 478.655,341.133 459.320,324.481L395.862,269.775L395.862,318.181ZM345.172,119.212C323.931,119.000 318.862,132.787 319.344,145.090C319.586,176.909 360.137,192.606 372.206,192.818C386.689,193.030 392.965,181.787 393.931,159.515C392.965,135.545 368.586,119.212 345.172,119.212ZM444.862,399.636C441.724,390.090 435.448,382.666 427.482,375.878L382.586,339.393L382.586,233.333C382.586,226.121 377.758,218.696 366.172,212.121L339.234,197.103C336.651,195.660 331.051,195.660 328.517,197.103L253.568,239.654C241.210,246.675 236.262,254.503 236.262,265.596L236.262,330.506C236.262,355.133 273.917,354.051 273.675,330.506L273.675,280.721C273.675,272.172 276.210,267.993 286.058,262.372L312.827,247.121L312.827,322.190C312.827,333.051 319.296,344.569 327.937,351.612L393.665,405.024C400.931,410.921 406.555,418.451 409.741,428.378L439.310,520.333C447.251,545.045 485.872,535.351 478.389,510.618Z"/>
  </g>
</svg>
