<?xml version="1.0" encoding="UTF-8"?>
<svg version="1.1" id="background" xmlns="http://www.w3.org/2000/svg" xmlns:xlink="http://www.w3.org/1999/xlink" width="700mm" height="700mm" viewBox="0 0 700 700" xml:space="preserve">
  <g>
    <path fill="#FFFFFF" fill-rule="evenodd" stroke="none" d="M0,45C0,20.147 20.147,0 45,0L655,0C679.852,0 700,20.147 700,45L700,655C700,679.852 679.852,700 655,700L45,700C20.147,700 0,679.852 0,655Z"/>
    <path fill="#0000FF" fill-rule="evenodd" stroke="none" d="M20,45C20,31.192 31.192,20 45,20L655,20C668.807,20 680,31.192 680,45L680,655C680,668.807 668.807,680 655,680L45,680C31.192,680 20,668.807 20,655L20,45ZM67.200,567C59.468,567 53.200,560.731 53.200,553C53.200,550.542 53.846,548.128 55.075,546L338.826,54.528C341.327,50.196 345.949,47.528 350.951,47.528C355.953,47.528 360.574,50.196 363.075,54.528L646.826,546C648.055,548.128 648.702,550.542 648.702,553C648.702,560.731 642.434,567 634.702,567Z"/>
    <path fill="black" fill-rule="evenodd" stroke="none" d="M98,551.515L153.034,487.878L196.965,487.878L165.103,551.515ZM307.999,551.515L321.034,487.878L366.172,487.878L375.344,551.515ZM521.620,551.515L488.551,487.878L534.655,487.878L589.206,551.515ZM477.448,504.636C483.965,512.484 483.482,520.333 473.103,527.757C462.000,534.969 451.620,533.272 444.379,524.575L347.103,396.030L378.482,370.363ZM268.172,349.151C248.186,366.354 221.344,341.133 240.679,324.481L304.137,269.775L304.137,318.181ZM354.827,119.212C376.068,119.000 381.137,132.787 380.655,145.090C380.413,176.909 339.862,192.606 327.793,192.818C313.310,193.030 307.034,181.787 306.068,159.515C307.034,135.545 331.413,119.212 354.827,119.212ZM255.137,399.636C258.275,390.090 264.551,382.666 272.517,375.878L317.413,339.393L317.413,233.333C317.413,226.121 322.241,218.696 333.827,212.121L360.765,197.103C363.348,195.660 368.948,195.660 371.482,197.103L446.431,239.654C458.789,246.675 463.737,254.503 463.737,265.596L463.737,330.506C463.737,355.133 426.082,354.051 426.324,330.506L426.324,280.721C426.324,272.172 423.789,267.993 413.941,262.372L387.172,247.121L387.172,322.190C387.172,333.051 380.703,344.569 372.062,351.612L306.334,405.024C299.068,410.921 293.444,418.451 290.258,428.378L260.689,520.333C252.748,545.045 214.127,535.351 221.610,510.618Z"/>
  </g>
</svg>
