<?xml version="1.0" encoding="UTF-8"?>
<svg version="1.1" id="background" xmlns="http://www.w3.org/2000/svg" xmlns:xlink="http://www.w3.org/1999/xlink" width="700mm" height="700mm" viewBox="0 0 700 700" xml:space="preserve">
  <g>
    <path fill="#FFFFFF" fill-rule="evenodd" stroke="none" d="M0,45C0,20.147 20.147,0 45,0L655,0C679.852,0 700,20.147 700,45L700,655C700,679.852 679.852,700 655,700L45,700C20.147,700 0,679.852 0,655Z"/>
    <path fill="#0000FF" fill-rule="evenodd" stroke="none" d="M20,45C20,31.192 31.192,20 45,20L655,20C668.807,20 680,31.192 680,45L680,655C680,668.807 668.807,680 655,680L45,680C31.192,680 20,668.807 20,655L20,45ZM67.200,567C59.468,567 53.200,560.731 53.200,553C53.200,550.542 53.846,548.128 55.075,546L338.826,54.528C341.327,50.196 345.949,47.528 350.951,47.528C355.953,47.528 360.574,50.196 363.075,54.528L646.826,546C648.055,548.128 648.702,550.542 648.702,553C648.702,560.731 642.434,567 634.702,567Z"/>
    <path fill="black" fill-rule="evenodd" stroke="none" d="M186.338,476.388C227.746,466.666 241.549,408.333 351.971,408.333C458.450,408.333 476.197,468.611 515.633,476.388ZM578.732,476.388L578.732,497.777L123.239,497.777L123.239,476.388Z"/>
  </g>
</svg>
