<?xml version="1.0" encoding="UTF-8"?>
<svg version="1.1" id="background" xmlns="http://www.w3.org/2000/svg" xmlns:xlink="http://www.w3.org/1999/xlink" width="700mm" height="700mm" viewBox="0 0 700 700" xml:space="preserve">
  <g>
    <path fill="#FFFFFF" fill-rule="evenodd" stroke="none" d="M0,45C0,20.147 20.147,0 45,0L655,0C679.852,0 700,20.147 700,45L700,655C700,679.852 679.852,700 655,700L45,700C20.147,700 0,679.852 0,655Z"/>
    <path fill="#0000FF" fill-rule="evenodd" stroke="none" d="M165.444,219.596L315.281,219.596L302.231,258.745L204.546,258.745L204.546,323.947C207.926,321.506 211.352,319.488 214.873,317.845C218.440,316.249 222.008,314.934 225.669,313.949C229.331,312.963 232.992,312.212 236.607,311.742C240.268,311.320 244.023,310.991 247.826,310.897L249.750,310.897C253.459,310.897 257.261,311.179 261.204,311.742C265.757,312.587 270.217,313.761 274.676,315.310C279.183,316.906 283.548,318.924 287.820,321.412C292.091,323.900 296.128,326.764 299.884,330.002C303.686,333.241 307.160,336.950 310.352,341.128C313.544,345.305 316.266,349.859 318.519,354.788C320.773,359.716 322.556,365.068 323.918,370.795C325.232,376.521 325.889,382.624 325.889,389.149C325.889,397.035 325.091,404.452 323.448,411.399C321.852,418.346 319.599,424.871 316.689,430.926C313.778,437.029 310.352,442.615 306.362,447.732C302.325,452.801 297.959,457.448 293.124,461.626C288.336,465.804 283.220,469.465 277.821,472.564C272.423,475.709 266.884,478.337 261.204,480.403C255.524,482.515 249.797,484.064 244.023,485.191C238.203,486.270 232.476,486.834 226.796,486.834C222.994,486.834 219.238,486.646 215.577,486.317C211.916,485.989 208.348,485.519 204.827,484.909C201.260,484.346 197.880,483.642 194.641,482.844C191.402,482.046 188.257,481.154 185.253,480.168C182.249,479.182 179.385,478.103 176.709,477.023C174.081,475.896 171.640,474.817 169.434,473.737C167.227,472.610 165.209,471.531 163.425,470.404C161.641,469.325 160.092,468.245 158.825,467.212L156.572,428.251C159.811,429.659 163.378,431.067 167.227,432.616C171.123,434.119 175.301,435.480 179.761,436.747C184.220,438.062 189.055,439.094 194.266,439.986C199.523,440.878 205.062,441.301 210.977,441.301C213.746,441.301 216.844,441.019 220.177,440.503C223.557,439.986 227.031,439.235 230.645,438.249C234.213,437.264 237.827,435.996 241.489,434.494C245.150,432.992 248.624,431.208 252.004,429.096C255.383,427.030 258.528,424.636 261.486,422.008C264.443,419.332 266.978,416.328 269.137,413.042C271.296,409.756 272.986,406.094 274.254,402.104C275.521,398.068 276.178,393.749 276.178,389.149C276.178,385.440 275.850,381.967 275.146,378.681C274.442,375.442 273.456,372.437 272.188,369.668C270.921,366.898 269.372,364.270 267.635,361.829C265.898,359.388 263.974,357.228 261.814,355.304C259.702,353.379 257.402,351.689 254.961,350.187C252.520,348.685 249.985,347.418 247.309,346.432C244.634,345.446 241.911,344.742 239.048,344.273C236.231,343.803 233.415,343.569 230.645,343.569C226.937,343.569 223.416,343.850 220.083,344.460C216.797,345.024 213.558,346.056 210.366,347.559C207.174,349.108 204.029,351.126 200.978,353.661C197.927,356.196 194.735,359.341 191.496,363.049L165.444,350L165.444,219.596ZM426.778,425.716C429.219,429.049 431.801,431.818 434.523,434.072C437.246,436.325 440.062,438.109 443.020,439.376C445.977,440.643 449.075,441.301 452.314,441.301C455.459,441.301 458.510,440.643 461.468,439.376C464.425,438.109 467.241,436.325 469.964,434.072C472.687,431.818 475.268,429.049 477.709,425.716C480.150,422.430 482.404,418.675 484.469,414.497C486.581,410.319 488.412,405.813 490.055,400.931C491.698,396.096 493.059,390.932 494.233,385.487C495.406,380.042 496.298,374.362 496.908,368.447C497.566,362.533 497.894,356.384 497.894,350C497.894,343.756 497.566,337.654 496.908,331.692C496.298,325.684 495.406,320.004 494.233,314.559C493.059,309.114 491.698,303.950 490.055,299.068C488.412,294.186 486.581,289.727 484.469,285.596C482.404,281.465 480.150,277.757 477.709,274.471C475.268,271.185 472.687,268.368 469.964,266.021C467.241,263.721 464.425,261.937 461.468,260.717C458.510,259.496 455.459,258.886 452.314,258.886C449.075,258.886 445.977,259.496 443.020,260.717C440.062,261.937 437.246,263.721 434.523,266.021C431.801,268.368 429.219,271.185 426.778,274.471C424.337,277.757 422.084,281.465 419.971,285.596C417.906,289.727 416.028,294.186 414.432,299.068C412.789,303.950 411.428,309.114 410.255,314.559C409.081,320.004 408.189,325.684 407.579,331.692C406.922,337.654 406.593,343.756 406.593,350C406.593,356.384 406.922,362.533 407.579,368.447C408.189,374.362 409.081,380.042 410.255,385.487C411.428,390.932 412.789,396.096 414.432,400.931C416.028,405.813 417.906,410.319 419.971,414.497C422.084,418.675 424.337,422.430 426.778,425.716L426.778,425.716ZM452.314,486.834C445.930,486.834 439.781,485.895 433.819,484.064C427.858,482.187 422.131,479.558 416.686,476.084C411.240,472.564 406.077,468.386 401.195,463.457C396.360,458.528 391.854,452.989 387.723,446.746C383.639,440.549 379.930,433.837 376.598,426.514C373.312,419.191 370.495,411.493 368.195,403.278C365.848,395.110 364.111,386.567 362.891,377.648C361.670,368.729 361.060,359.529 361.060,350C361.060,340.611 361.670,331.458 362.891,322.539C364.111,313.620 365.848,305.030 368.195,296.815C370.495,288.600 373.312,280.808 376.598,273.532C379.930,266.209 383.639,259.450 387.723,253.253C391.854,247.057 396.360,241.518 401.195,236.589C406.077,231.660 411.240,227.435 416.686,223.962C422.131,220.488 427.858,217.813 433.819,215.982C439.781,214.104 445.930,213.165 452.314,213.165C458.604,213.165 464.707,214.104 470.668,215.982C476.630,217.813 482.357,220.488 487.802,223.962C493.247,227.435 498.411,231.660 503.246,236.589C508.127,241.518 512.634,247.057 516.765,253.253C520.849,259.450 524.557,266.209 527.890,273.532C531.176,280.808 533.992,288.600 536.292,296.815C538.639,305.030 540.376,313.620 541.597,322.539C542.817,331.458 543.427,340.611 543.427,350C543.427,359.529 542.817,368.729 541.597,377.648C540.376,386.567 538.639,395.110 536.292,403.278C533.992,411.493 531.176,419.191 527.890,426.514C524.557,433.837 520.849,440.549 516.765,446.746C512.634,452.989 508.127,458.528 503.246,463.457C498.411,468.386 493.247,472.564 487.802,476.084C482.357,479.558 476.630,482.187 470.668,484.064C464.707,485.895 458.604,486.834 452.314,486.834L452.314,486.834ZM20,45C20,31.192 31.192,20 45,20L655,20C668.807,20 680,31.192 680,45L680,655C680,668.807 668.807,680 655,680L45,680C31.192,680 20,668.807 20,655L20,45Z"/>
  </g>
</svg>
