<?xml version="1.0" encoding="UTF-8"?>
<svg version="1.1" id="background" xmlns="http://www.w3.org/2000/svg" xmlns:xlink="http://www.w3.org/1999/xlink" width="700mm" height="700mm" viewBox="0 0 700 700" xml:space="preserve">
  <g>
    <path fill="#FFFFFF" fill-rule="evenodd" stroke="none" d="M0,45C0,20.147 20.147,0 45,0L655,0C679.852,0 700,20.147 700,45L700,655C700,679.852 679.852,700 655,700L45,700C20.147,700 0,679.852 0,655Z"/>
    <path fill="#0000FF" fill-rule="evenodd" stroke="none" d="M20,45C20,31.192 31.192,20 45,20L655,20C668.807,20 680,31.192 680,45L680,655C680,668.807 668.807,680 655,680L45,680C31.192,680 20,668.807 20,655L20,45ZM396.666,420C486.966,420 560,346.966 560,256.666C560,166.366 486.966,93.333 396.666,93.333L210,93.333L210,606.666L280,606.666L280,420ZM396.666,163.333C448.466,163.099 490.233,204.866 490.233,256.666C490.233,308.466 448.466,350.233 396.666,350.233L280,350L280,163.333Z"/>
  </g>
</svg>
